<svg width="236" height="236" viewBox="0 0 236 236" fill="none" xmlns="http://www.w3.org/2000/svg">
<path d="M4.4519 177.673C4.40879 177.673 4.36614 177.656 4.33427 177.622C4.27366 177.557 4.27725 177.455 4.3419 177.394C4.42765 177.315 13.0662 169.318 27.9099 163.465C41.6082 158.064 63.5487 153.431 90.2765 162.031C90.3816 162.068 100.572 165.583 115.156 166.243C128.614 166.853 148.665 165.086 167.795 153.216C183.468 143.492 198.803 143.684 212.702 152.515C223.381 159.3 229.595 169.033 229.657 169.13C229.704 169.205 229.682 169.305 229.607 169.352C229.532 169.4 229.432 169.377 229.385 169.302C229.324 169.205 223.141 159.526 212.52 152.781C202.733 146.566 187.058 141.643 167.965 153.49C148.761 165.405 128.633 167.177 115.131 166.564C100.502 165.9 90.2756 162.372 90.1742 162.336C63.5402 153.766 41.6778 158.382 28.0279 163.764C13.2404 169.595 4.64675 177.55 4.56189 177.63C4.53091 177.658 4.4914 177.673 4.4519 177.673Z" fill="#171718"/>
<path d="M172.014 190.329H170.501C170.412 190.329 170.34 190.257 170.34 190.168C170.34 190.079 170.412 190.007 170.501 190.007H172.014C172.103 190.007 172.175 190.079 172.175 190.168C172.175 190.257 172.103 190.329 172.014 190.329Z" fill="#171718"/>
<path d="M182.903 177.627H181.389C181.3 177.627 181.229 177.555 181.229 177.466C181.229 177.377 181.3 177.305 181.389 177.305H182.903C182.992 177.305 183.064 177.377 183.064 177.466C183.064 177.555 182.992 177.627 182.903 177.627Z" fill="#171718"/>
<path d="M208.761 174.904H207.247C207.158 174.904 207.086 174.833 207.086 174.744C207.086 174.655 207.158 174.583 207.247 174.583H208.761C208.849 174.583 208.921 174.655 208.921 174.744C208.921 174.833 208.849 174.904 208.761 174.904Z" fill="#171718"/>
<path d="M22.3079 177.173H20.7935C20.7046 177.173 20.6328 177.101 20.6328 177.012C20.6328 176.923 20.7046 176.852 20.7935 176.852H22.3079C22.3968 176.852 22.4686 176.923 22.4686 177.012C22.4686 177.101 22.3968 177.173 22.3079 177.173Z" fill="#171718"/>
<path d="M66.2137 190.691H64.6998C64.6109 190.691 64.5391 190.619 64.5391 190.53C64.5391 190.441 64.6109 190.369 64.6998 190.369H66.2137C66.3026 190.369 66.3744 190.441 66.3744 190.53C66.3744 190.619 66.3026 190.691 66.2137 190.691Z" fill="#171718"/>
<path d="M66.9715 169.907H65.4576C65.3687 169.907 65.2969 169.835 65.2969 169.746C65.2969 169.657 65.3687 169.585 65.4576 169.585H66.9715C67.0604 169.585 67.1322 169.657 67.1322 169.746C67.1322 169.835 67.0604 169.907 66.9715 169.907Z" fill="#171718"/>
<path d="M40.919 191.355H38.3424C38.2535 191.355 38.1816 191.283 38.1816 191.194V115.451C38.1816 114.652 38.8313 114.003 39.6305 114.003C40.4296 114.003 41.0797 114.652 41.0797 115.451V191.194C41.0797 191.283 41.0079 191.355 40.919 191.355ZM38.5031 191.033H40.7583V115.451C40.7583 114.83 40.2523 114.324 39.6305 114.324C39.0091 114.324 38.5031 114.83 38.5031 115.451V191.033Z" fill="#171718"/>
<path d="M74.6001 120.216L66.1649 136.362C65.9372 136.797 65.517 137.1 65.0314 137.178L18.5993 144.644C18.0042 144.739 17.4072 144.483 17.0666 143.986L8.61826 131.647C8.13635 130.943 8.31013 129.982 9.0081 129.492L23.4981 119.311C23.7506 119.134 24.0502 119.035 24.3588 119.028L73.1845 117.937C74.3697 117.91 75.149 119.165 74.6001 120.216Z" fill="white"/>
<path d="M18.3553 144.824C17.7945 144.824 17.2566 144.547 16.9338 144.077L8.48567 131.738C7.95724 130.965 8.14984 129.899 8.91578 129.36L23.4057 119.18C23.6854 118.983 24.014 118.875 24.3557 118.868L73.1811 117.776C74.4693 117.734 75.3542 119.119 74.743 120.29L66.3079 136.436C66.0578 136.915 65.5904 137.252 65.0575 137.337L18.6251 144.803C18.5353 144.817 18.4451 144.824 18.3553 144.824ZM73.2206 118.098C73.2098 118.098 73.199 118.098 73.1883 118.098L24.3629 119.189C24.085 119.196 23.8178 119.283 23.5906 119.443L9.10075 129.623C8.47848 130.061 8.3218 130.928 8.75145 131.556L17.1996 143.895C17.5036 144.339 18.0423 144.57 18.5739 144.485L65.0063 137.02C65.4396 136.95 65.8194 136.676 66.0223 136.287L74.4575 120.141C74.9444 119.209 74.2674 118.098 73.2206 118.098Z" fill="#171718"/>
<path d="M23.155 132.668C23.089 132.668 23.0275 132.627 23.0037 132.562C22.9736 132.478 23.0167 132.386 23.1002 132.356C28.8923 130.257 34.5825 130.234 40.6067 130.209C47.9985 130.179 55.6417 130.147 64.2726 126.277C64.3543 126.241 64.449 126.277 64.4854 126.358C64.5218 126.439 64.4854 126.534 64.4046 126.571C55.7113 130.469 48.0331 130.5 40.6081 130.531C34.6126 130.555 28.9494 130.579 23.2098 132.658C23.1918 132.665 23.1734 132.668 23.155 132.668Z" fill="#335CFF"/>
<path d="M43.9595 191.355H35.3053C35.2164 191.355 35.1445 191.283 35.1445 191.194C35.1445 191.106 35.2164 191.034 35.3053 191.034H43.9595C44.0484 191.034 44.1202 191.106 44.1202 191.194C44.1202 191.283 44.0484 191.355 43.9595 191.355Z" fill="#171718"/>
<path d="M191.702 142.709C192.966 144.244 194.25 145.826 194.957 145.494C195.79 145.099 194.431 142.904 193.518 141.725C194.486 142.744 195.565 143.563 195.928 143.072C196.777 141.918 189.777 133.989 189.777 133.989L182.849 138.783C182.691 140.594 184.298 146.538 185.721 146.551C186.439 146.559 186.306 144.86 186.658 143.143C188.643 145.595 190.441 148.327 191.127 147.79C191.869 147.208 190.947 145.189 189.959 143.593C191.36 145.566 192.589 147.375 193.342 146.813C193.9 146.393 192.669 144.132 191.702 142.709Z" fill="white"/>
<path d="M190.853 148.015C190.174 147.93 189.133 146.584 187.815 144.879C187.472 144.435 187.115 143.973 186.75 143.517C186.678 143.936 186.63 144.351 186.586 144.726C186.458 145.835 186.355 146.712 185.725 146.712C185.723 146.712 185.721 146.712 185.718 146.712C185.465 146.71 185.206 146.565 184.948 146.28C183.697 144.904 182.548 140.363 182.687 138.77C182.691 138.722 182.716 138.679 182.756 138.651L189.684 133.857C189.751 133.811 189.842 133.822 189.896 133.883C191.079 135.223 196.938 141.97 196.057 143.167C195.963 143.295 195.826 143.368 195.662 143.378C195.323 143.405 194.901 143.157 194.484 142.835C194.983 143.631 195.875 145.238 195.024 145.64C194.477 145.897 193.727 145.282 192.888 144.36C193.444 145.402 193.915 146.583 193.438 146.942C193.285 147.057 193.11 147.101 192.919 147.069C192.41 146.989 191.814 146.371 191.145 145.505C191.556 146.49 191.77 147.489 191.225 147.917C191.12 147.999 190.995 148.033 190.853 148.015ZM186.782 143.042C187.224 143.588 187.656 144.147 188.07 144.682C189.241 146.197 190.347 147.627 190.892 147.696C190.947 147.701 190.989 147.692 191.027 147.664C191.542 147.259 191.069 145.695 189.821 143.678C189.775 143.604 189.797 143.507 189.869 143.459C189.941 143.411 190.038 143.429 190.089 143.5L190.273 143.76C191.326 145.246 192.321 146.649 192.968 146.751C193.073 146.768 193.162 146.747 193.245 146.685C193.59 146.425 192.822 144.645 191.568 142.799C191.52 142.728 191.536 142.632 191.605 142.58C191.673 142.529 191.771 142.54 191.825 142.607L191.891 142.686C192.966 143.994 194.308 145.627 194.887 145.349C194.968 145.311 195.016 145.248 195.04 145.151C195.183 144.549 194.318 143.022 193.39 141.824C193.337 141.757 193.347 141.66 193.412 141.604C193.477 141.548 193.574 141.552 193.633 141.615C194.501 142.527 195.257 143.075 195.642 143.057C195.712 143.053 195.76 143.028 195.798 142.976C196.353 142.221 192.422 137.242 189.749 134.203L183.002 138.872C182.913 140.446 184.025 144.785 185.187 146.064C185.382 146.28 185.562 146.389 185.721 146.391H185.724C186.069 146.391 186.161 145.602 186.267 144.688C186.323 144.205 186.387 143.658 186.499 143.111C186.526 142.978 186.696 142.937 186.782 143.042Z" fill="#171718"/>
<path d="M86.238 131.172C85.3226 131.094 84.4062 131.012 83.4899 130.926C83.4014 130.918 83.3363 130.84 83.3444 130.751C83.353 130.663 83.4306 130.591 83.5195 130.606C84.435 130.691 85.3513 130.773 86.2658 130.852C86.3543 130.859 86.4198 130.937 86.4122 131.026C86.4045 131.115 86.3242 131.18 86.238 131.172Z" fill="#171718"/>
<path d="M113.794 132.951C113.705 132.948 113.635 132.875 113.638 132.786C113.639 132.697 113.71 132.629 113.802 132.629C115.688 132.678 117.928 132.702 119.32 132.698C119.408 132.698 119.48 132.769 119.48 132.858C119.481 132.947 119.409 133.019 119.32 133.019C119.268 133.019 117.074 133.037 113.794 132.951ZM124.841 132.913C124.754 132.913 124.683 132.845 124.68 132.758C124.676 132.67 124.746 132.595 124.835 132.592C126.714 132.522 128.567 132.415 130.34 132.275C130.427 132.266 130.506 132.335 130.513 132.423C130.52 132.511 130.454 132.589 130.366 132.596C128.587 132.736 126.73 132.843 124.846 132.913C124.845 132.913 124.842 132.913 124.841 132.913ZM108.281 132.742C108.278 132.742 108.276 132.742 108.273 132.742C106.546 132.659 104.742 132.557 102.758 132.429C102.669 132.423 102.602 132.347 102.607 132.258C102.613 132.169 102.675 132.1 102.778 132.108C104.761 132.235 106.563 132.338 108.289 132.421C108.377 132.425 108.446 132.501 108.442 132.589C108.438 132.675 108.366 132.742 108.281 132.742ZM97.2602 132.044C97.2562 132.044 97.2521 132.044 97.2481 132.044C95.4091 131.907 93.5729 131.763 91.742 131.62C91.6535 131.613 91.5871 131.535 91.5943 131.447C91.601 131.359 91.6711 131.293 91.7671 131.299C93.598 131.443 95.4334 131.586 97.2723 131.723C97.3608 131.729 97.4272 131.807 97.4205 131.895C97.4142 131.98 97.3437 132.044 97.2602 132.044ZM135.685 131.891C135.674 131.802 135.736 131.722 135.824 131.71C137.677 131.473 139.51 131.187 141.271 130.862C141.359 130.847 141.442 130.904 141.458 130.991C141.474 131.079 141.417 131.162 141.329 131.178C139.562 131.505 137.724 131.791 135.865 132.03C135.76 132.036 135.695 131.967 135.685 131.891ZM146.54 129.892C146.519 129.806 146.571 129.718 146.658 129.697C148.417 129.258 150.202 128.753 151.961 128.195C152.045 128.168 152.136 128.215 152.163 128.3C152.19 128.384 152.143 128.475 152.058 128.502C150.292 129.062 148.502 129.569 146.736 130.009C146.65 130.03 146.562 129.98 146.54 129.892ZM157.07 126.578C157.039 126.496 157.08 126.402 157.163 126.371C158.846 125.725 160.558 125.012 162.252 124.252C162.334 124.216 162.428 124.252 162.465 124.333C162.501 124.414 162.465 124.51 162.384 124.546C160.684 125.308 158.966 126.023 157.278 126.671C157.197 126.702 157.103 126.663 157.07 126.578ZM167.153 122.084C167.112 122.005 167.144 121.908 167.223 121.867C168.824 121.049 170.456 120.167 172.073 119.246C172.149 119.201 172.248 119.228 172.292 119.307C172.336 119.384 172.309 119.482 172.232 119.526C170.611 120.449 168.975 121.334 167.369 122.154C167.294 122.193 167.194 122.165 167.153 122.084ZM176.757 116.64C176.71 116.565 176.732 116.465 176.808 116.418C178.322 115.473 179.878 114.462 181.433 113.413C181.506 113.363 181.606 113.382 181.656 113.456C181.706 113.53 181.687 113.63 181.613 113.68C180.055 114.73 178.496 115.744 176.978 116.691C176.905 116.737 176.804 116.716 176.757 116.64ZM185.921 110.482C185.869 110.41 185.886 110.31 185.958 110.258C187.402 109.219 188.895 108.116 190.395 106.977C190.466 106.924 190.567 106.938 190.621 107.008C190.675 107.079 190.661 107.18 190.59 107.234C189.088 108.374 187.592 109.479 186.146 110.519C186.077 110.569 185.975 110.557 185.921 110.482ZM194.732 103.823C194.677 103.754 194.689 103.653 194.759 103.598C196.143 102.504 197.59 101.341 199.062 100.139C199.131 100.083 199.232 100.093 199.288 100.162C199.345 100.231 199.334 100.332 199.266 100.388C197.792 101.591 196.343 102.755 194.958 103.85C194.889 103.904 194.788 103.894 194.732 103.823ZM203.303 96.8511C203.246 96.7828 203.255 96.6814 203.323 96.6248C204.467 95.6716 206.41 94.0467 207.549 93.0739C207.617 93.0169 207.719 93.025 207.776 93.0919C207.834 93.1597 207.826 93.2611 207.758 93.3191C206.614 94.2947 204.665 95.9261 203.529 96.8717C203.461 96.9288 203.359 96.9191 203.303 96.8511ZM211.654 89.6272C211.592 89.563 211.595 89.4611 211.659 89.4C213.12 88.006 214.357 86.6986 215.439 85.4029C215.497 85.3347 215.598 85.3266 215.666 85.3827C215.734 85.4397 215.743 85.5412 215.686 85.6094C214.596 86.9141 213.351 88.2305 211.881 89.6326C211.819 89.6932 211.715 89.6923 211.654 89.6272ZM202.391 84.7865C201.04 84.7865 199.971 84.6592 199.882 84.6522C199.794 84.6419 199.73 84.5624 199.741 84.474C199.75 84.386 199.824 84.3182 199.919 84.3326C200.023 84.3374 202.41 84.6531 205.389 84.272C205.476 84.2697 205.558 84.324 205.569 84.4111C205.581 84.4996 205.518 84.58 205.43 84.5912C204.418 84.7209 203.395 84.7865 202.391 84.7865ZM210.614 83.1895C210.584 83.106 210.627 83.0135 210.711 82.9839C212.404 82.3773 214.07 81.5867 215.663 80.6335C215.739 80.5878 215.838 80.6129 215.884 80.6892C215.929 80.7655 215.905 80.8643 215.828 80.9101C214.217 81.8736 212.532 82.6732 210.819 83.2865C210.737 83.3172 210.644 83.2739 210.614 83.1895ZM194.524 83.1971C192.716 82.393 191.127 81.3169 189.928 80.0854C189.866 80.0216 189.868 79.9197 189.932 79.8577C189.996 79.7958 190.098 79.7971 190.159 79.8609C191.33 81.0632 192.884 82.1151 194.656 82.9035C194.737 82.9394 194.773 83.0346 194.737 83.1159C194.7 83.1998 194.601 83.2323 194.524 83.1971ZM218.648 81.131C218.571 81.0875 218.544 80.9891 218.587 80.9119C219.194 79.8362 219.706 78.747 220.117 77.6574C220.022 77.6012 220.011 77.4701 220.093 77.3983C220.151 77.3467 220.21 77.295 220.268 77.243C220.43 76.7841 220.575 76.3253 220.7 75.8678C220.724 75.7829 220.811 75.7326 220.898 75.7551C220.984 75.7789 221.035 75.8673 221.011 75.9531C220.934 76.2332 220.85 76.5138 220.759 76.7944C221.884 75.7452 222.929 74.6129 223.871 73.42C223.926 73.35 224.028 73.3388 224.097 73.3935C224.166 73.4483 224.179 73.5498 224.123 73.6194C223.051 74.9779 221.848 76.2575 220.544 77.4279C220.107 78.6478 219.546 79.8676 218.867 81.0699C218.822 81.1499 218.722 81.1732 218.648 81.131ZM187.4 75.175C187.155 73.2747 187.692 71.4354 188.628 69.7897C188.672 69.712 188.77 69.6851 188.847 69.7291C188.925 69.7731 188.951 69.8714 188.908 69.9486C187.997 71.5492 187.482 73.2925 187.719 75.1337C187.731 75.2222 187.668 75.3025 187.58 75.3138C187.491 75.3249 187.411 75.2624 187.4 75.175ZM221.473 70.6095C221.388 70.6095 221.317 70.5435 221.312 70.4582C221.198 68.4918 220.725 66.7991 219.927 65.2228C219.887 65.1433 219.919 65.0468 219.998 65.0064C220.077 64.9678 220.174 64.9979 220.214 65.0774C221.036 66.7021 221.516 68.4348 221.634 70.4393C221.639 70.5282 221.571 70.6041 221.483 70.6095C221.479 70.6095 221.476 70.6095 221.473 70.6095ZM226.911 69.0287C226.832 68.9883 226.801 68.8913 226.841 68.8123C226.868 68.7531 228.001 66.6205 228.924 63.7336C228.951 63.6492 229.041 63.5994 229.126 63.6294C229.211 63.6564 229.258 63.7471 229.23 63.8315C228.329 66.6519 227.399 68.3636 227.128 68.9578C227.087 69.0377 226.99 69.0679 226.911 69.0287ZM192.123 65.7099C192.061 65.6462 192.063 65.5443 192.127 65.4823C193.323 64.3211 194.863 62.9886 196.348 61.8933C196.419 61.8394 196.52 61.8556 196.573 61.927C196.626 61.9988 196.61 62.0994 196.539 62.1519C195.074 63.2329 193.554 64.5464 192.351 65.7131C192.287 65.7756 192.184 65.7725 192.123 65.7099ZM216.579 60.9545C215.165 59.7329 213.576 58.8394 211.858 58.2993C211.773 58.2728 211.726 58.1821 211.753 58.0977C211.779 58.0124 211.872 57.9653 211.954 57.9922C213.715 58.5458 215.342 59.4603 216.79 60.7112C216.857 60.7691 216.865 60.871 216.806 60.9379C216.747 61.0068 216.644 61.0111 216.579 60.9545ZM201.021 59.2484C200.985 59.1676 201.02 59.072 201.1 59.0347C202.904 58.205 204.697 57.6856 206.43 57.4907C206.525 57.4818 206.598 57.5446 206.607 57.6326C206.617 57.7211 206.554 57.8005 206.466 57.8104C204.767 58.0017 203.007 58.5121 201.235 59.3275C201.155 59.3636 201.059 59.3294 201.021 59.2484ZM230.343 58.5781C230.256 58.5633 230.197 58.4803 230.212 58.3927C230.505 56.6619 230.705 54.8221 230.805 52.9252C230.81 52.8368 230.892 52.7672 230.975 52.773C231.063 52.778 231.131 52.8534 231.127 52.9423C231.025 54.8517 230.824 56.7037 230.529 58.4466C230.514 58.5385 230.423 58.5941 230.343 58.5781ZM231.002 47.5744C230.916 47.5744 230.844 47.5062 230.841 47.4196C230.779 45.6749 230.653 43.8768 230.456 41.9224C230.447 41.834 230.511 41.755 230.6 41.746C230.686 41.7366 230.767 41.8017 230.776 41.8901C230.974 43.8512 231.1 45.656 231.163 47.4079C231.166 47.4968 231.097 47.5713 231.008 47.5744C231.006 47.5744 231.004 47.5744 231.002 47.5744ZM229.764 36.454C229.449 34.4377 229.081 32.676 228.642 31.0682C228.618 30.9825 228.669 30.8936 228.755 30.8703C228.839 30.8478 228.929 30.8976 228.952 30.9834C229.395 32.6028 229.765 34.3758 230.082 36.4046C230.096 36.4922 230.036 36.5744 229.948 36.5883C229.864 36.6023 229.778 36.5442 229.764 36.454ZM151.154 29.7214C151.109 29.645 151.133 29.5463 151.209 29.5C152.773 28.5522 154.39 27.631 156.014 26.7618C156.093 26.72 156.19 26.7492 156.232 26.8278C156.274 26.9059 156.244 27.0038 156.166 27.0455C154.547 27.912 152.935 28.8302 151.376 29.7757C151.302 29.8199 151.202 29.7992 151.154 29.7214ZM226.743 25.924C225.904 24.2081 224.892 22.6748 223.736 21.3666C223.677 21.3001 223.683 21.1986 223.75 21.1398C223.816 21.0806 223.918 21.0864 223.977 21.1537C225.153 22.4831 226.181 24.0406 227.032 25.783C227.071 25.8629 227.038 25.959 226.958 25.9981C226.882 26.0359 226.783 26.0066 226.743 25.924ZM160.879 24.4945C160.841 24.4141 160.875 24.3185 160.956 24.2808C162.614 23.5018 164.318 22.7539 166.02 22.0575C166.104 22.0247 166.196 22.0638 166.23 22.1455C166.263 22.2281 166.224 22.322 166.142 22.3556C164.445 23.0497 162.746 23.7955 161.093 24.5717C161.017 24.6088 160.918 24.5776 160.879 24.4945ZM171.091 20.2994C171.062 20.2154 171.106 20.1238 171.19 20.0942C172.916 19.4872 174.686 18.9143 176.45 18.3913C176.536 18.367 176.625 18.4151 176.651 18.4999C176.676 18.5852 176.627 18.6746 176.542 18.7002C174.783 19.2214 173.018 19.7925 171.296 20.3977C171.216 20.4264 171.122 20.3858 171.091 20.2994ZM219.547 17.8821C218.064 16.9869 216.379 16.2502 214.538 15.6921C214.453 15.6665 214.405 15.5763 214.431 15.4914C214.456 15.4061 214.545 15.3585 214.631 15.3841C216.498 15.9498 218.207 16.6973 219.713 17.6065C219.789 17.6523 219.813 17.7515 219.768 17.8274C219.72 17.905 219.621 17.9268 219.547 17.8821ZM181.672 17.1463C181.651 17.0596 181.704 16.9725 181.79 16.9519C183.576 16.5177 185.394 16.1231 187.194 15.7783C187.279 15.7612 187.366 15.8191 187.382 15.9062C187.399 15.9933 187.342 16.0778 187.254 16.0944C185.46 16.4378 183.647 16.8316 181.867 17.2644C181.782 17.2849 181.694 17.2338 181.672 17.1463ZM192.512 15.0555C192.5 14.9675 192.561 14.8862 192.649 14.8736C194.629 14.5959 196.63 14.3731 198.143 14.2424C198.242 14.2347 198.31 14.3003 198.317 14.3887C198.325 14.4772 198.259 14.5553 198.171 14.5629C196.656 14.6943 194.659 14.9164 192.694 15.1924C192.599 15.2035 192.524 15.1386 192.512 15.0555ZM209.163 14.5984C206.651 14.2999 204.852 14.3292 203.823 14.3012H203.671C203.582 14.3012 203.51 14.2294 203.51 14.1405C203.51 14.0516 203.582 13.9797 203.671 13.9797C205.536 13.9797 207.327 14.0561 209.2 14.2787C209.289 14.2891 209.352 14.3694 209.341 14.4574C209.33 14.5503 209.243 14.61 209.163 14.5984Z" fill="#171718"/>
<path d="M144.232 34.3333C144.18 34.2615 144.196 34.1605 144.267 34.1084C144.996 33.5786 145.756 33.0435 146.525 32.5173C146.597 32.4679 146.698 32.4858 146.748 32.5595C146.799 32.6327 146.78 32.7328 146.706 32.7831C145.94 33.3074 145.183 33.8408 144.457 34.3688C144.385 34.4204 144.284 34.4053 144.232 34.3333Z" fill="#171718"/>
<path d="M95.8057 69.429C95.8057 69.429 101.026 65.6552 100.393 64.3835C99.612 62.8145 96.2591 65.4735 96.2591 65.4735C96.2591 65.4735 95.2395 62.4629 96.4918 59.9897C97.744 57.5165 94.4104 57.6489 93.5274 63.2228C93.5274 63.2228 93.5382 61.2271 94.2859 58.5692C95.0336 55.9112 91.5994 56.9235 91.1827 63.1028C91.1827 63.1028 90.6711 62.4228 90.6799 60.4132C90.6887 58.4036 87.1724 60.6921 88.8688 69.2523L95.8057 69.429Z" fill="white"/>
<path d="M88.8662 69.4133C88.7908 69.4115 88.727 69.3577 88.7122 69.284C87.5261 63.2966 88.8748 60.4439 89.7538 59.7723C90.016 59.5716 90.2769 59.5177 90.4883 59.6241C90.6217 59.6901 90.8448 59.8809 90.8421 60.4147C90.8381 61.3885 90.9593 62.0418 91.0796 62.4485C91.4141 59.3341 92.5572 57.5036 93.5355 57.1045C93.8354 56.9828 94.1065 57.0093 94.2983 57.1799C94.5802 57.4318 94.6314 57.9409 94.4424 58.613C94.1914 59.5047 94.0244 60.324 93.9126 61.0168C94.5658 59.2133 95.4822 58.4752 96.0322 58.3275C96.3361 58.2453 96.6068 58.3131 96.7707 58.5143C97.0253 58.8276 96.9763 59.392 96.6369 60.0627C95.6209 62.0692 96.1507 64.4774 96.3487 65.2043C96.9373 64.7675 98.7466 63.5171 99.8371 63.7595C100.155 63.8305 100.391 64.0163 100.538 64.3122C101.213 65.6667 96.447 69.1655 95.9015 69.5597C95.8267 69.6149 96.2294 69.601 88.8662 69.4133ZM89.0032 69.095L95.7569 69.2674C97.7324 67.833 100.664 65.2865 100.25 64.4559C100.147 64.248 99.9889 64.1232 99.7675 64.0738C98.6236 63.8116 96.3828 65.5823 96.3608 65.6003C96.2702 65.6719 96.1428 65.6277 96.1085 65.5258C96.0658 65.4 95.0817 62.4221 96.3496 59.9173C96.6742 59.2766 96.6508 58.877 96.5206 58.7172C96.4174 58.5897 96.2432 58.6041 96.1157 58.6382C95.5024 58.803 94.2058 59.9788 93.6877 63.2482C93.6746 63.3312 93.6073 63.3995 93.5157 63.3833C93.4318 63.3766 93.3676 63.3061 93.368 63.2221C93.368 63.2019 93.3873 61.1739 94.1326 58.5259C94.2821 57.9944 94.2641 57.5809 94.0841 57.4201C93.962 57.3115 93.7846 57.3505 93.6567 57.4026C92.8602 57.7277 91.5874 59.5168 91.345 63.1139C91.3405 63.1808 91.2947 63.2383 91.23 63.2576C91.1654 63.2773 91.0967 63.2535 91.0558 63.2001C91.0334 63.1705 90.5112 62.4535 90.5207 60.4129C90.5216 60.1543 90.456 59.9671 90.3451 59.9123C90.2508 59.8657 90.1072 59.9079 89.9496 60.0282C88.9991 60.7542 87.9723 63.7645 89.0032 69.095Z" fill="#171718"/>
<path d="M144.399 45.3083L134.262 47.0463L127.283 65.045C126.948 65.9093 126.097 66.4564 125.168 66.4011L51.6054 62.0888C50.394 62.0242 49.9442 60.4436 50.9525 59.7533L103.184 23.8018C103.597 23.5167 104.099 23.3833 104.595 23.4338L124.787 25.3464C126.183 25.4764 127.095 26.9187 126.575 28.2521L122.663 37.9249L132.63 34.7343C133.214 34.5457 133.853 34.6193 134.377 34.9321L145.135 41.3729C146.831 42.3936 146.349 44.9727 144.399 45.3083Z" fill="white"/>
<path d="M125.298 66.5658C125.251 66.5658 125.205 66.5644 125.159 66.5617L51.596 62.2494C50.2248 62.1764 49.7329 60.393 50.862 59.6203L103.092 23.6694C103.541 23.361 104.081 23.2236 104.611 23.2734L124.802 25.186C126.281 25.3246 127.294 26.8509 126.725 28.3104L122.941 37.6672L132.581 34.5811C133.208 34.3777 133.893 34.4558 134.46 34.7939L145.217 41.2352C147.047 42.3345 146.525 45.1059 144.427 45.4667L134.379 47.1893L127.433 65.1035C127.088 65.9915 126.241 66.5658 125.298 66.5658ZM104.389 23.5841C103.996 23.5841 103.607 23.7058 103.275 23.9343L51.0438 59.8856C50.1578 60.4924 50.5597 61.8719 51.614 61.928L125.178 66.2403C126.037 66.2959 126.822 65.7873 127.133 64.9868L134.112 46.9878C134.132 46.9352 134.179 46.8971 134.235 46.8876L144.372 45.1497C146.173 44.8396 146.622 42.4548 145.052 41.5108L134.295 35.0704C133.808 34.7799 133.219 34.713 132.68 34.8872L122.712 38.078C122.585 38.1211 122.462 37.9924 122.514 37.8648L126.426 28.1918C126.914 26.9385 126.042 25.6247 124.772 25.5066L104.58 23.594C104.516 23.5872 104.452 23.5841 104.389 23.5841Z" fill="#171718"/>
<path d="M126.576 28.2522L122.664 37.925L50.4062 60.9535L126.139 26.0085C126.677 26.5787 126.893 27.4383 126.576 28.2522Z" fill="#FFEDD5"/>
<path d="M50.405 61.1141C50.2337 61.1141 50.1806 60.8796 50.3377 60.8074L126.071 25.8627C126.133 25.8326 126.207 25.8483 126.255 25.8981C126.871 26.5505 127.051 27.4749 126.725 28.3104C126.725 28.3109 126.725 28.3118 126.724 28.3122L122.811 37.9852C122.755 38.1241 125.955 37.0211 50.454 61.1064C50.4378 61.1118 50.4212 61.1141 50.405 61.1141ZM126.097 26.2048L52.8299 60.0114L122.542 37.7948L126.426 28.1924C126.691 27.5099 126.564 26.7588 126.097 26.2048Z" fill="#171718"/>
<path d="M134.263 47.0464L127.284 65.0452C126.948 65.9094 126.098 66.4565 125.169 66.4013L51.6062 62.089C50.9166 62.0521 50.4752 61.5235 50.4062 60.9535L134.263 47.0464Z" fill="#F3E8FF"/>
<path d="M125.297 66.5657C125.251 66.5657 125.205 66.5644 125.159 66.5617L51.5958 62.2494C50.7693 62.2054 50.3163 61.5566 50.2453 60.9725C50.235 60.8872 50.2938 60.8086 50.3787 60.7943L134.235 46.8871C134.364 46.8671 134.456 46.9929 134.412 47.1044L127.433 65.1034C127.088 65.9915 126.241 66.5657 125.297 66.5657ZM50.5937 61.0852C50.701 61.4942 51.0422 61.8974 51.6138 61.9279L125.178 66.2402C126.037 66.2959 126.822 65.7872 127.133 64.9867L134.01 47.2508L50.5937 61.0852Z" fill="#171718"/>
<path d="M69.3582 218.354L60.8246 225.126C60.3017 225.539 59.5419 225.453 59.1253 224.93L56.952 222.193C56.8009 222.001 56.711 221.74 56.6988 221.458L56.564 218.023C56.5476 217.622 56.3025 217.312 56.0043 217.316L53.4512 217.365C53.2428 217.369 53.0427 217.267 52.8916 217.079L41.7559 203.047C41.376 202.569 41.4086 201.813 41.8212 201.364C44.0597 198.92 47.2594 198.592 49.7012 200.809L49.9994 201.049L53.4553 203.88L56.8213 202.324L69.3582 218.354Z" fill="#FFEDD5"/>
<path d="M59.0008 225.031L56.8273 222.294C56.6554 222.075 56.553 221.781 56.5395 221.465L56.4044 218.029C56.3918 217.724 56.2163 217.477 56.0115 217.477C55.9653 217.477 53.4093 217.525 53.4556 217.526C53.192 217.536 52.9505 217.408 52.7673 217.18L41.6312 203.147C41.2056 202.612 41.2379 201.763 41.7039 201.256C44.0098 198.739 47.3097 198.419 49.8109 200.689C54.8394 204.804 53.1051 203.385 53.4803 203.692L56.7555 202.178C56.8224 202.146 56.9041 202.166 56.9494 202.225L69.4863 218.254C69.5411 218.324 69.529 218.425 69.4598 218.48L60.9259 225.253C60.3329 225.72 59.4707 225.621 59.0008 225.031ZM56.0106 217.155C56.3932 217.155 56.7065 217.532 56.7258 218.016L56.861 221.452C56.8718 221.7 56.9494 221.928 57.0801 222.094L59.2526 224.83C59.6122 225.282 60.2736 225.359 60.7261 225L69.1343 218.327L56.7748 202.524L53.5238 204.027C53.4682 204.054 53.4022 204.045 53.3546 204.005L49.6017 200.934C47.1957 198.752 44.1013 199.115 41.941 201.473C41.5778 201.869 41.5517 202.53 41.8835 202.947L53.0192 216.979C53.1377 217.127 53.2895 217.221 53.4493 217.204L56.0026 217.155C56.0053 217.155 56.008 217.155 56.0106 217.155Z" fill="#FFEDD5"/>
<path d="M61.8418 208.748L65.8158 221.165L69.3604 218.352L61.8418 208.748Z" fill="#171718"/>
<path d="M65.6616 221.214L61.6874 208.797C61.6636 208.723 61.6964 208.642 61.7651 208.606C61.8338 208.571 61.9191 208.588 61.9671 208.649L69.4855 218.253C69.5402 218.323 69.5281 218.423 69.459 218.478L65.9149 221.292C65.8306 221.359 65.6974 221.326 65.6616 221.214ZM62.2675 209.555L65.8969 220.895L69.1335 218.326L62.2675 209.555Z" fill="#171718"/>
<path d="M61.544 224.554L60.8236 225.125C60.3007 225.54 59.5404 225.453 59.1254 224.93L56.9521 222.192C56.8014 222.002 56.7114 221.74 56.7004 221.459L56.5762 218.294L61.544 224.554Z" fill="#171718"/>
<path d="M58.9999 225.03L56.8265 222.293C56.6545 222.075 56.5526 221.781 56.5401 221.466L56.4161 218.301C56.4134 218.231 56.4556 218.168 56.5207 218.144C56.5858 218.12 56.6595 218.14 56.703 218.194L61.6708 224.454C61.727 224.525 61.7127 224.626 61.6448 224.68L60.9242 225.252C60.3237 225.728 59.4654 225.616 58.9999 225.03ZM56.7569 218.78L56.8615 221.453C56.8714 221.701 56.9486 221.928 57.0788 222.092L59.2523 224.83C59.5958 225.264 60.2484 225.376 60.724 224.999L61.3184 224.528L56.7569 218.78Z" fill="#171718"/>
<path d="M55.805 217.321L53.453 217.367C53.2446 217.371 53.0449 217.267 52.8943 217.078L41.7584 203.047C41.3959 202.59 41.4289 201.797 41.8236 201.365C42.0645 201.102 42.3179 200.869 42.5781 200.656L55.805 217.321Z" fill="#171718"/>
<path d="M53.4394 217.527C53.1848 217.527 52.9464 217.403 52.7668 217.177L41.6307 203.147C41.2208 202.63 41.2545 201.746 41.7034 201.256C41.9342 201.004 42.1865 200.767 42.4747 200.531C42.5504 200.47 42.651 200.491 42.7028 200.555L55.9298 217.221C56.0123 217.326 55.9388 217.479 55.8068 217.481L53.4546 217.527C53.4497 217.527 53.4443 217.527 53.4394 217.527ZM42.5533 200.885C42.3284 201.077 42.1268 201.27 41.9405 201.474C41.597 201.849 41.5692 202.551 41.883 202.947L53.0187 216.977C53.1377 217.127 53.2831 217.207 53.4484 217.205L55.4754 217.166L42.5533 200.885Z" fill="#171718"/>
<path d="M50.0025 201.049C48.2435 202.489 45.5839 201.619 44.9902 199.444C46.5997 199.085 48.2869 199.522 49.7043 200.808L50.0025 201.049Z" fill="#171718"/>
<path d="M44.8339 199.486C44.8098 199.399 44.8636 199.308 44.9542 199.287C46.6688 198.905 48.3937 199.402 49.8116 200.69L50.1025 200.924C50.1814 200.988 50.1826 201.109 50.1034 201.174C48.2662 202.679 45.463 201.789 44.8339 199.486ZM45.1944 199.566C45.8299 201.454 48.1168 202.201 49.7411 201.046L49.6023 200.934C48.3044 199.756 46.7487 199.276 45.1944 199.566Z" fill="#171718"/>
<path d="M173.775 153.483L182.309 146.71C182.832 146.297 183.592 146.383 184.008 146.906L186.182 149.643C186.333 149.835 186.423 150.096 186.435 150.378L186.57 153.814C186.586 154.214 186.831 154.524 187.129 154.52L189.682 154.471C189.891 154.467 190.091 154.569 190.242 154.757L201.378 168.789C201.758 169.267 201.725 170.023 201.312 170.472C199.074 172.916 195.874 173.244 193.432 171.028C188.288 166.818 190.062 168.27 189.678 167.956L186.312 169.512L173.775 153.483Z" fill="#FFEDD5"/>
<path d="M197.054 172.675C195.724 172.675 194.431 172.151 193.325 171.147C188.296 167.033 190.031 168.452 189.656 168.145L186.38 169.658C186.314 169.691 186.232 169.671 186.186 169.611L173.65 153.582C173.595 153.512 173.607 153.412 173.676 153.357L182.21 146.583C182.802 146.115 183.666 146.216 184.135 146.806L186.309 149.543C186.481 149.761 186.583 150.055 186.596 150.371L186.731 153.807C186.744 154.113 186.92 154.36 187.124 154.36C187.126 154.36 187.128 154.36 187.128 154.36L189.68 154.311C189.686 154.31 189.691 154.31 189.696 154.31C189.951 154.31 190.189 154.433 190.369 154.657L201.505 168.689C201.931 169.225 201.898 170.074 201.432 170.581C200.292 171.825 198.761 172.675 197.054 172.675ZM189.679 167.795C189.716 167.795 189.752 167.807 189.781 167.832L193.534 170.903C195.94 173.086 199.035 172.721 201.195 170.363C201.559 169.968 201.584 169.307 201.252 168.889L190.117 154.857C189.998 154.709 189.859 154.642 189.687 154.632L187.133 154.681C186.748 154.692 186.43 154.308 186.41 153.82L186.275 150.384C186.264 150.136 186.186 149.908 186.056 149.742L183.883 147.006C183.524 146.554 182.863 146.478 182.41 146.836L174.002 153.51L186.361 169.313L189.612 167.81C189.634 167.8 189.657 167.795 189.679 167.795Z" fill="#FFEDD5"/>
<path d="M181.294 163.088L177.32 150.671L173.775 153.484L181.294 163.088Z" fill="#171718"/>
<path d="M181.17 163.187L173.652 153.583C173.597 153.513 173.609 153.413 173.678 153.358L177.223 150.544C177.307 150.476 177.44 150.512 177.476 150.622L181.45 163.039C181.474 163.113 181.441 163.194 181.372 163.23C181.307 163.265 181.22 163.25 181.17 163.187ZM174.004 153.51L180.87 162.281L177.241 150.941L174.004 153.51Z" fill="#171718"/>
<path d="M181.59 147.282L182.31 146.71C182.833 146.296 183.593 146.383 184.008 146.906L186.182 149.644C186.332 149.834 186.422 150.096 186.434 150.377L186.558 153.541L181.59 147.282Z" fill="#171718"/>
<path d="M186.558 153.703C186.51 153.703 186.464 153.681 186.432 153.642L181.464 147.383C181.438 147.349 181.426 147.306 181.431 147.264C181.436 147.222 181.457 147.183 181.49 147.156L182.211 146.585C182.82 146.102 183.675 146.227 184.135 146.806L186.309 149.544C186.481 149.762 186.583 150.056 186.595 150.371L186.719 153.536C186.722 153.605 186.68 153.668 186.615 153.693C186.596 153.699 186.577 153.703 186.558 153.703ZM181.817 147.308L186.378 153.056L186.273 150.383C186.264 150.136 186.187 149.909 186.056 149.745L183.883 147.006C183.529 146.56 182.872 146.47 182.411 146.837L181.817 147.308Z" fill="#171718"/>
<path d="M187.332 154.515L189.684 154.47C189.892 154.466 190.092 154.569 190.243 154.759L201.379 168.789C201.741 169.246 201.708 170.04 201.313 170.471C201.073 170.734 200.819 170.967 200.559 171.18L187.332 154.515Z" fill="#171718"/>
<path d="M200.432 171.28L187.205 154.615C187.167 154.567 187.159 154.502 187.185 154.447C187.211 154.391 187.267 154.355 187.328 154.354L189.68 154.309C189.936 154.284 190.185 154.428 190.368 154.659L201.504 168.689C201.914 169.206 201.88 170.089 201.431 170.58C201.2 170.832 200.948 171.069 200.66 171.305C200.592 171.361 200.488 171.352 200.432 171.28ZM187.659 154.67L200.581 170.951C200.806 170.759 201.008 170.566 201.194 170.362C201.537 169.987 201.565 169.284 201.251 168.889L190.115 154.859C189.996 154.709 189.834 154.619 189.686 154.631L187.659 154.67Z" fill="#171718"/>
<path d="M193.135 170.787C194.894 169.347 197.553 170.217 198.147 172.392C196.538 172.751 194.85 172.314 193.433 171.028L193.135 170.787Z" fill="#171718"/>
<path d="M197.054 172.675C195.725 172.675 194.432 172.151 193.325 171.147L193.034 170.912C192.955 170.848 192.954 170.727 193.033 170.662C194.871 169.158 197.674 170.047 198.303 172.35C198.327 172.437 198.273 172.528 198.183 172.549C197.806 172.633 197.428 172.675 197.054 172.675ZM193.396 170.79C193.566 170.891 195.284 172.769 197.942 172.27C197.307 170.382 195.02 169.635 193.396 170.79Z" fill="#171718"/>
<path d="M105.988 137.59C105.988 137.59 115.139 143.285 129.218 142.928C143.298 142.571 125.002 133.923 125.002 133.923L105.988 137.59Z" fill="#171718"/>
<path d="M153.075 140.567C153.075 150.961 139.025 165.889 122.433 179.888C119.224 182.592 115.923 185.267 112.609 187.86C110.94 189.17 109.266 190.458 107.602 191.726C104.729 193.91 101.878 196.025 99.1062 198.039C82.8957 209.836 69.3242 218.322 69.3242 218.322L53.7344 198.186C53.7344 198.186 107.998 147.693 127.022 125.639C131.927 119.956 153.075 119.805 153.075 140.567Z" fill="white"/>
<path d="M107.603 191.726C104.73 193.91 101.879 196.025 99.107 198.039C98.4772 197.17 98.1094 196.103 98.1094 194.949C98.1094 192.025 100.482 189.653 103.406 189.653C105.116 189.653 106.638 190.467 107.603 191.726Z" fill="#F3E8FF"/>
<path d="M69.1979 218.421L53.6081 198.284C53.5569 198.218 53.5645 198.125 53.6256 198.068C54.1679 197.563 108.1 147.328 126.901 125.534C131.997 119.629 153.237 119.779 153.237 140.566C153.237 149.553 142.908 162.824 122.538 180.011C119.376 182.674 116.069 185.358 112.709 187.987C111.209 189.164 109.617 190.393 107.7 191.854C104.924 193.964 102.065 196.089 99.2018 198.169C83.172 209.834 69.5459 218.374 69.4103 218.459C69.3427 218.501 69.2495 218.488 69.1979 218.421ZM53.9524 198.203L69.3627 218.108C70.763 217.227 83.8046 208.975 99.0124 197.908C101.874 195.83 104.731 193.707 107.505 191.598C109.421 190.138 111.011 188.91 112.51 187.733C115.868 185.107 119.172 182.426 122.33 179.765C142.625 162.642 152.915 149.454 152.915 140.566C152.915 129.139 146.5 125.047 142.677 123.626C136.565 121.352 129.585 122.917 127.144 125.744C108.735 147.084 56.6826 195.658 53.9524 198.203Z" fill="#171718"/>
<path d="M122.435 179.889C119.226 182.591 115.924 185.267 112.608 187.862C112.541 177.128 115.821 165.861 115.821 165.861L122.435 179.889Z" fill="#171718"/>
<path d="M68.6178 202.7C68.5711 202.625 68.5944 202.526 68.6703 202.479C105.439 179.801 125.978 143.849 126.182 143.489C126.226 143.411 126.323 143.383 126.401 143.428C126.478 143.471 126.506 143.57 126.462 143.647C126.259 144.008 105.681 180.03 68.8391 202.753C68.7663 202.798 68.6658 202.778 68.6178 202.7Z" fill="#171718"/>
<path d="M187.808 171.921C187.808 171.921 153.7 203.951 131.375 201.123C127.853 200.683 124.575 199.344 121.978 196.967C105.914 182.384 123.072 136.764 123.072 136.764L150.799 130.42C150.799 130.42 153.792 135.096 153.838 143.831C153.861 147.159 153.451 151.072 152.293 155.545C151.314 159.31 149.801 163.466 147.558 167.995C144.234 174.707 173.781 153.508 173.781 153.508L187.808 171.921Z" fill="white"/>
<path d="M153.838 143.831C153.861 147.159 153.452 151.072 152.294 155.545C152.229 155.549 152.16 155.549 152.096 155.549C148.786 155.549 146.105 152.869 146.105 149.559C146.105 146.249 148.786 143.569 152.096 143.569C152.703 143.569 153.287 143.661 153.838 143.831Z" fill="#F3E8FF"/>
<path d="M131.946 198.77C131.946 199.616 131.739 200.42 131.376 201.123C127.854 200.683 124.576 199.344 121.979 196.967C122.709 195.013 124.594 193.625 126.801 193.625C129.642 193.625 131.946 195.928 131.946 198.77Z" fill="#F3E8FF"/>
<path d="M134.222 201.458C133.248 201.458 132.293 201.402 131.356 201.283C127.85 200.845 124.519 199.51 121.871 197.086C113.519 189.504 114.255 173.479 116.344 161.37C118.602 148.279 122.88 136.822 122.923 136.708C122.942 136.657 122.985 136.619 123.038 136.608L150.764 130.263C150.832 130.247 150.899 130.276 150.936 130.333C151.023 130.469 159.51 144.225 147.703 168.066C147.448 168.58 147.391 168.934 147.541 169.062C148.976 170.28 163.967 160.353 173.689 153.378C173.759 153.327 173.858 153.341 173.911 153.411L187.937 171.823C187.987 171.889 187.979 171.982 187.919 172.038C187.834 172.118 179.253 180.142 168.055 187.716C158.543 194.148 145.295 201.458 134.222 201.458ZM123.194 136.902C122.393 139.08 106.606 182.793 122.088 196.848C124.676 199.217 127.942 200.533 131.396 200.963C152.773 203.677 185.469 173.864 187.593 171.902L173.749 153.73C170.717 155.902 149.394 171.059 147.333 169.307C147.047 169.064 147.074 168.612 147.415 167.923C158.624 145.288 151.452 131.861 150.722 130.602L123.194 136.902Z" fill="#171718"/>
<path d="M142.994 185.422C137.147 185.422 131.949 183.456 129.632 177.96C124.252 165.198 136.15 139.561 136.271 139.303C136.309 139.223 136.405 139.186 136.485 139.226C136.565 139.264 136.6 139.36 136.562 139.44C136.442 139.696 124.604 165.205 129.929 177.835C132.188 183.195 137.272 185.102 142.99 185.102C158.737 185.103 173.968 167.867 174.141 167.668C174.199 167.6 174.302 167.595 174.368 167.652C174.435 167.711 174.442 167.812 174.383 167.879C174.334 167.936 169.346 173.621 162.209 178.461C157.154 181.89 150.197 185.422 142.994 185.422Z" fill="#171718"/>
<path d="M194.481 132.861L177.54 143.569C169.265 127.188 160.479 123.588 153.523 122.366C155.252 139.008 153.477 138.856 153.477 138.856C134.761 146.166 124.674 133.385 105.991 137.592C105.991 137.592 104.335 125.519 99.3841 115.902C98.9197 114.996 98.4278 114.118 97.9037 113.267C96.8877 111.626 95.7843 110.031 94.6625 108.394C89.0629 100.21 83.0955 90.9331 85.9826 68.7138L102.648 68.5344C102.648 68.5344 101.108 95.7832 116.721 99.1163C131.216 102.215 152.916 95.6362 171.876 106.339C182.327 112.24 189.406 122.039 194.481 132.861Z" fill="#335CFF"/>
<path d="M77.3279 212.46L59.9377 192.36C59.8793 192.293 59.887 192.191 59.9543 192.133C60.0203 192.074 60.1222 192.082 60.181 192.15L77.5713 212.25C77.6296 212.317 77.622 212.419 77.5547 212.477C77.4904 212.534 77.3875 212.529 77.3279 212.46Z" fill="#171718"/>
<path d="M181.922 177.056L166.357 158.699C166.299 158.631 166.307 158.53 166.375 158.472C166.444 158.416 166.544 158.423 166.602 158.491L182.167 176.848C182.224 176.915 182.216 177.017 182.149 177.074C182.079 177.132 181.979 177.123 181.922 177.056Z" fill="#171718"/>
<path d="M94.7372 67.727C94.7345 67.727 94.7313 67.727 94.7282 67.727C94.6397 67.722 94.5715 67.6462 94.5764 67.5573C94.6721 65.8171 96.1981 65.3246 96.2134 65.3201C96.2973 65.2936 96.388 65.3412 96.4145 65.4256C96.441 65.5104 96.3934 65.6007 96.309 65.6272C96.2547 65.6442 94.9809 66.0627 94.8979 67.5752C94.8929 67.661 94.822 67.727 94.7372 67.727Z" fill="#171718"/>
<path d="M102.096 77.3044L86.9102 74.3046L86.9722 73.9883L102.158 76.9885L102.096 77.3044Z" fill="#171718"/>
<path d="M99.0205 72.4357C99.0205 73.0189 98.5398 73.4998 97.9565 73.4998C97.3655 73.4998 96.8926 73.0189 96.8926 72.4357C96.8926 71.8446 97.3655 71.3718 97.9565 71.3718C98.5398 71.3718 99.0205 71.8446 99.0205 72.4357Z" fill="white"/>
<path d="M106.542 99.6816C106.257 99.8978 99.3929 105.153 99.3837 115.901C98.9193 114.996 98.4274 114.117 97.9033 113.267C96.8873 111.626 95.7838 110.031 94.6621 108.394C99.117 101.47 106.238 99.7506 106.542 99.6816Z" fill="#171718"/>
<path d="M60.752 29.0835H58.0649C58.0016 29.0835 57.9441 29.0467 57.9181 28.9887C57.4395 27.9269 56.3292 27.2459 55.1664 27.3482C55.0656 27.3577 54.9834 27.2724 54.9918 27.1736C55.0012 27.0676 55.0025 26.9563 55.0025 26.8472C55.0025 23.3807 51.4261 21.0541 48.2559 22.4608C48.1526 22.5058 48.034 22.434 48.0301 22.3194C47.8555 17.4616 43.9091 13.6561 39.0459 13.6561C37.9176 13.6561 36.819 13.8627 35.7801 14.2703C35.7195 14.2928 35.6517 14.2789 35.6068 14.2331C33.5842 12.1799 30.8846 11.049 28.0045 11.049C22.1154 11.049 17.324 15.8413 17.324 21.7312C17.324 22.665 17.4228 22.7167 17.3164 22.8177C17.2113 22.915 17.1525 22.8123 16.5172 22.8123C14.021 22.8123 11.9661 24.6845 11.738 27.1673C11.7304 27.2499 11.6608 27.3132 11.5777 27.3132H8.83456C8.74566 27.3132 8.67383 27.2414 8.67383 27.1525C8.67383 27.0636 8.74566 26.9917 8.83456 26.9917H11.4332C11.7727 24.1643 14.2988 22.236 17.03 22.5165C16.5776 16.1288 21.6522 10.7275 28.0045 10.7275C30.9362 10.7275 33.6866 11.8648 35.7612 13.9323C36.8087 13.5358 37.9131 13.3347 39.0459 13.3347C44.0056 13.3347 48.0449 17.1563 48.3403 22.0769C51.7556 20.7396 55.4389 23.342 55.3222 27.0178C56.6191 27.0178 57.6655 27.7431 58.1668 28.762H60.752C60.8409 28.762 60.9127 28.8339 60.9127 28.9227C60.9127 29.0116 60.8409 29.0835 60.752 29.0835Z" fill="#171718"/>
<path d="M20.2628 24.612C19.4911 23.6495 18.3978 23.0267 17.1838 22.8579C17.0958 22.8458 17.0343 22.7645 17.0464 22.6765C17.0586 22.5885 17.1412 22.5293 17.2278 22.5392C18.5235 22.7192 19.6909 23.3837 20.5143 24.4109C20.5695 24.48 20.5587 24.5815 20.4891 24.6372C20.4215 24.6914 20.3196 24.6823 20.2628 24.612Z" fill="#171718"/>
<path d="M46.5183 23.5254C46.4541 23.4639 46.4519 23.362 46.5138 23.2982C46.9758 22.8178 47.5177 22.4371 48.1243 22.1673C48.206 22.1296 48.3007 22.1673 48.3366 22.2485C48.373 22.3298 48.3366 22.425 48.2554 22.4609C47.6865 22.7141 47.1788 23.071 46.7455 23.5209C46.6846 23.5853 46.5815 23.5867 46.5183 23.5254Z" fill="#171718"/>
<path d="M54.0083 27.5022C53.972 27.421 54.0079 27.3258 54.0891 27.2894C54.4214 27.1399 54.7747 27.051 55.1402 27.0254C55.2295 27.0165 55.3054 27.086 55.3117 27.1745C55.3184 27.2629 55.2515 27.3397 55.1626 27.346C54.8353 27.3693 54.5188 27.4493 54.2211 27.5831C54.1386 27.6192 54.0446 27.5826 54.0083 27.5022Z" fill="#171718"/>
<path d="M33.5502 15.3239C33.4981 15.2521 33.5138 15.1515 33.5861 15.0994C34.1967 14.6567 34.8594 14.2899 35.5557 14.0084C35.6379 13.9738 35.7317 14.0147 35.765 14.0973C35.7982 14.1795 35.7587 14.2733 35.6761 14.3065C35.004 14.5782 34.3642 14.9328 33.7747 15.3598C33.7052 15.4105 33.6035 15.3977 33.5502 15.3239Z" fill="#171718"/>
<path d="M96.973 68.5348C98.4715 67.3376 100.831 65.2627 100.394 64.3836C99.6705 62.9308 96.7422 65.103 96.3125 65.4327" fill="white"/>
<path d="M96.8479 68.6355C96.7923 68.5659 96.8039 68.4649 96.8731 68.4092C99.2679 66.4957 100.53 65.0177 100.25 64.4556C100.148 64.25 99.9925 64.1256 99.7747 64.0749C98.9635 63.8877 97.4576 64.7582 96.4111 65.5601C96.3411 65.6144 96.2396 65.6009 96.1857 65.5304C96.1314 65.4599 96.1449 65.3589 96.2154 65.305C96.7761 64.8754 98.6941 63.4912 99.847 63.7615C100.16 63.8338 100.393 64.0192 100.538 64.3119C100.912 65.0626 99.7465 66.5253 97.0742 68.6606C97.0066 68.7149 96.9047 68.7058 96.8479 68.6355Z" fill="#171718"/>
<path d="M129.533 80.4275C129.533 80.4275 127.931 82.357 128.852 83.8242C129.772 85.2914 134.594 82.6892 134.594 82.6892L129.533 80.4275Z" fill="#171718"/>
<path d="M127.37 99.9981L128.202 95.7004C121.038 93.2438 130.027 81.9053 130.922 81.0552L140.382 88.0802L136.65 94.282L134.663 99.8169C133.81 102.411 127.12 102.557 127.37 99.9981Z" fill="white"/>
<path d="M129.162 101.878C127.832 101.597 127.12 100.907 127.211 99.982C127.211 99.9771 127.212 99.9721 127.213 99.9672L128.019 95.8053C126.57 95.2719 125.688 94.3282 125.398 92.9979C124.448 88.6443 130.248 81.4743 130.812 80.9383C130.869 80.8839 130.956 80.879 131.019 80.9257L140.479 87.9506C140.545 88 140.563 88.0921 140.52 88.163L136.788 94.365L134.815 99.8711C134.215 101.698 131.061 102.277 129.162 101.878ZM127.53 100.021C127.434 101.069 128.685 101.448 129.228 101.562C131.215 101.979 134.016 101.273 134.511 99.7665L136.499 94.2276L140.169 88.1221L130.941 81.2687C130.025 82.2685 124.83 88.8836 125.712 92.9292C125.985 94.1818 126.841 95.0631 128.255 95.548C128.331 95.5741 128.376 95.6522 128.361 95.7308L127.53 100.021Z" fill="#171718"/>
<path d="M129.321 78.7355C130.007 76.2407 134.209 77.5412 139.657 79.7634C150.301 84.1048 141.769 95.4362 137.086 94.7042C133.612 94.1611 138.047 90.723 138.047 90.723C138.047 90.723 135.303 90.3279 136.224 88.2203C137.145 86.1128 127.954 83.7033 129.321 78.7355Z" fill="#171718"/>
<path d="M128.739 89.3654C128.372 89.2563 127.89 89.0624 127.68 88.7575C127.475 88.4589 127.604 88.1411 127.947 87.9885C128.197 87.8768 128.504 87.8474 128.752 87.773C129.288 87.6136 129.55 87.2504 129.804 86.8988C129.857 86.8265 129.956 86.8117 130.028 86.8625C130.1 86.9145 130.116 87.0151 130.065 87.0874C129.806 87.4452 129.484 87.8906 128.843 88.0814C128.597 88.1553 128.283 88.1906 128.078 88.2821C127.93 88.3483 127.854 88.4408 127.945 88.5753C128.066 88.7499 128.388 88.9254 128.831 89.0565C128.916 89.0821 128.964 89.1715 128.939 89.2568C128.913 89.3435 128.822 89.3899 128.739 89.3654Z" fill="#171718"/>
<path d="M131.168 88.0328C131.424 88.0328 131.632 87.8253 131.632 87.5694C131.632 87.3134 131.424 87.106 131.168 87.106C130.913 87.106 130.705 87.3134 130.705 87.5694C130.705 87.8253 130.913 88.0328 131.168 88.0328Z" fill="#171718"/>
<path d="M132.885 87.5864C132.839 87.1604 132.685 86.8551 132.425 86.68C131.958 86.3652 131.294 86.5493 131.288 86.5511C131.2 86.5736 131.112 86.5255 131.088 86.4407C131.064 86.3549 131.113 86.266 131.199 86.2413C131.232 86.2323 132.015 86.0155 132.605 86.4133C132.947 86.644 133.149 87.0275 133.204 87.5523C133.214 87.6407 133.149 87.7202 133.061 87.7292C132.984 87.7411 132.894 87.6813 132.885 87.5864Z" fill="#171718"/>
<path d="M128.204 86.5216C128.46 86.5216 128.667 86.3141 128.667 86.0581C128.667 85.8022 128.46 85.5947 128.204 85.5947C127.948 85.5947 127.74 85.8022 127.74 86.0581C127.74 86.3141 127.948 86.5216 128.204 86.5216Z" fill="#171718"/>
<path d="M129.736 85.9737C129.691 85.5481 129.537 85.2437 129.278 85.0681C128.813 84.7534 128.145 84.9366 128.138 84.9388C128.052 84.9608 127.964 84.9128 127.94 84.8279C127.916 84.7426 127.964 84.6537 128.05 84.629C128.083 84.6196 128.865 84.4019 129.456 84.8005C129.799 85.0313 130 85.4147 130.055 85.9396C130.065 86.028 130.001 86.1075 129.913 86.1165C129.835 86.1283 129.745 86.0685 129.736 85.9737Z" fill="#171718"/>
<path d="M128.19 95.7052C129.362 96.1483 130.913 95.8004 132.584 95.2891C132.584 95.2891 131.965 97.8007 127.926 97.1292L128.19 95.7052Z" fill="#171718"/>
<path d="M129.203 97.4031C128.811 97.4031 128.378 97.3676 127.898 97.2882C127.811 97.2735 127.749 97.1892 127.767 97.1001L128.031 95.6759C128.048 95.5793 128.151 95.517 128.246 95.5547C129.394 95.9898 130.987 95.6099 132.535 95.1354C132.659 95.101 132.768 95.2091 132.739 95.328C132.733 95.3513 132.188 97.4031 129.203 97.4031ZM128.113 96.9959C130.999 97.4242 132.003 96.1388 132.308 95.5399C130.696 96.0145 129.383 96.247 128.313 95.9175L128.113 96.9959Z" fill="#171718"/>
<path d="M135.889 91.2446C135.619 92.1893 136.167 93.1754 137.112 93.4455C138.061 93.7167 139.047 93.1691 139.317 92.2243C139.588 91.2755 139.04 90.2894 138.091 90.0181C137.146 89.748 136.16 90.2957 135.889 91.2446Z" fill="white"/>
<path d="M137.066 93.6007C136.037 93.3062 135.439 92.2296 135.733 91.201C136.028 90.1697 137.106 89.5703 138.134 89.8635C139.168 90.1596 139.766 91.2331 139.47 92.2691C139.174 93.3016 138.1 93.8957 137.066 93.6007ZM136.043 91.289C135.798 92.1474 136.296 93.0453 137.155 93.2909C138.006 93.5349 138.912 93.0511 139.16 92.1806C139.41 91.3117 138.904 90.4179 138.046 90.1733C137.186 89.9241 136.289 90.4274 136.043 91.289Z" fill="#171718"/>
<path d="M127.002 90.1394C127.525 90.2441 127.341 90.4157 129.014 90.8532C130.686 91.2907 127.785 93.5931 126.749 92.9715C125.713 92.3498 126.131 89.9652 127.002 90.1394Z" fill="#171718"/>
<path d="M127.977 92.3141C128.233 92.1843 127.832 91.7636 127.609 91.6298C127.398 91.5031 127.098 91.763 126.743 91.7319C126.612 91.7204 127.569 92.5213 127.977 92.3141Z" fill="white"/>
<path d="M121.793 168.528C123.672 168.528 125.196 167.005 125.196 165.126C125.196 163.247 123.672 161.723 121.793 161.723C119.914 161.723 118.391 163.247 118.391 165.126C118.391 167.005 119.914 168.528 121.793 168.528Z" fill="#F3E8FF"/>
<path d="M158.166 189.258C159.591 189.258 160.746 188.103 160.746 186.678C160.746 185.253 159.591 184.098 158.166 184.098C156.741 184.098 155.586 185.253 155.586 186.678C155.586 188.103 156.741 189.258 158.166 189.258Z" fill="#F3E8FF"/>
<path d="M143.168 177.512C144.593 177.512 145.748 176.357 145.748 174.932C145.748 173.507 144.593 172.352 143.168 172.352C141.743 172.352 140.588 173.507 140.588 174.932C140.588 176.357 141.743 177.512 143.168 177.512Z" fill="#F3E8FF"/>
<path d="M110.987 158.593C112.866 158.593 114.389 157.07 114.389 155.191C114.389 153.311 112.866 151.788 110.987 151.788C109.107 151.788 107.584 153.311 107.584 155.191C107.584 157.07 109.107 158.593 110.987 158.593Z" fill="#F3E8FF"/>
<path d="M82.6465 203.236C84.0714 203.236 85.2265 202.081 85.2265 200.656C85.2265 199.231 84.0714 198.076 82.6465 198.076C81.2215 198.076 80.0664 199.231 80.0664 200.656C80.0664 202.081 81.2215 203.236 82.6465 203.236Z" fill="#F3E8FF"/>
<path d="M89.8242 178.968C91.2491 178.968 92.4043 177.813 92.4043 176.388C92.4043 174.963 91.2491 173.808 89.8242 173.808C88.3993 173.808 87.2441 174.963 87.2441 176.388C87.2441 177.813 88.3993 178.968 89.8242 178.968Z" fill="#F3E8FF"/>
<path d="M176.549 136.679C176.49 136.613 176.495 136.511 176.561 136.452L188.926 125.365C188.992 125.306 189.093 125.311 189.153 125.377C189.212 125.443 189.207 125.545 189.141 125.604L176.776 136.692C176.71 136.751 176.608 136.745 176.549 136.679Z" fill="#171718"/>
<path d="M190.974 130.42C190.974 131.009 190.496 131.482 189.908 131.482C189.324 131.482 188.846 131.009 188.846 130.42C188.846 129.832 189.324 129.358 189.908 129.358C190.496 129.358 190.974 129.832 190.974 130.42Z" fill="white"/>
<path d="M169.016 131.126C168.939 131.024 161.187 121.117 141.611 121.117C141.199 121.117 140.784 121.121 140.361 121.13L140.354 120.808C140.778 120.799 141.197 120.795 141.61 120.795C161.361 120.795 169.194 130.828 169.273 130.932L169.016 131.126Z" fill="#171718"/>
<path d="M182.863 115.083C181.622 116.127 180.013 116.757 178.261 116.757C174.303 116.757 171.094 113.548 171.094 109.59C171.094 108.417 171.374 107.314 171.875 106.339C175.677 108.486 179.364 111.332 182.863 115.083Z" fill="#171718"/>
<path d="M18.4959 81.9563C18.4672 81.9563 18.4384 81.9491 18.4124 81.9329C17.0579 81.1082 16.6273 79.3352 17.4525 77.9811C17.8516 77.3252 18.4829 76.8646 19.2291 76.6836C19.9757 76.5022 20.7479 76.623 21.4039 77.0226C21.4802 77.0688 21.504 77.1676 21.4577 77.2435C21.4119 77.3198 21.3123 77.3441 21.2368 77.2974C20.6536 76.9427 19.9685 76.8367 19.3049 76.9961C18.6423 77.1568 18.082 77.5663 17.7273 78.1481C16.9946 79.3509 17.3771 80.9254 18.5794 81.6582C18.6553 81.7044 18.6795 81.8032 18.6333 81.879C18.6032 81.9289 18.5502 81.9563 18.4959 81.9563Z" fill="#171718"/>
<path d="M221.421 122.512C221.349 122.46 221.333 122.36 221.385 122.287C222.213 121.148 221.96 119.548 220.821 118.721C219.682 117.893 218.082 118.147 217.254 119.286C217.202 119.357 217.102 119.374 217.029 119.321C216.957 119.269 216.942 119.168 216.994 119.097C217.926 117.814 219.727 117.528 221.011 118.46C222.293 119.392 222.577 121.194 221.646 122.477C221.593 122.549 221.493 122.564 221.421 122.512Z" fill="#171718"/>
<path d="M181.105 44.1641C181.073 44.1641 181.039 44.1542 181.011 44.1336C180.939 44.0815 180.923 43.9805 180.975 43.9086C181.803 42.7696 181.55 41.1695 180.411 40.3421C179.272 39.5142 177.672 39.7683 176.844 40.9073C176.792 40.9787 176.691 40.9949 176.619 40.9428C176.547 40.8907 176.531 40.7897 176.583 40.7179C177.515 39.4356 179.317 39.1492 180.601 40.0817C181.883 41.0137 182.168 42.8154 181.236 44.0981C181.204 44.1412 181.155 44.1641 181.105 44.1641Z" fill="#171718"/>
</svg>
