<svg width="145" height="34" viewBox="0 0 145 34" fill="none" xmlns="http://www.w3.org/2000/svg">
<path d="M13.4157 0.97112C15.6338 -0.323707 18.3667 -0.323707 20.5848 0.97112L28.9374 5.84685C31.1556 7.14168 32.522 9.53462 32.522 12.1243V21.8757C32.522 24.4654 31.1556 26.8583 28.9374 28.1531L20.5848 33.0289C18.3667 34.3237 15.6338 34.3237 13.4157 33.0289L5.06311 28.1532C2.84495 26.8583 1.47852 24.4654 1.47852 21.8757V12.1243C1.47852 9.53462 2.84495 7.14168 5.06311 5.84685L13.4157 0.97112Z" fill="white"/>
<path fill-rule="evenodd" clip-rule="evenodd" d="M25.8254 8.40188C25.8254 8.25166 25.7036 8.12988 25.5534 8.12988H14.6109C14.3666 8.12988 14.2462 8.42692 14.4215 8.59706L19.9672 13.9797C19.9699 13.9823 19.9736 13.9838 19.9774 13.9838C19.9855 13.9838 19.992 13.9904 19.992 13.9984V25.568C19.992 25.7182 20.1138 25.84 20.264 25.84H25.568C25.7183 25.84 25.84 25.7182 25.84 25.568V13.0633C25.84 13.0593 25.8368 13.056 25.8327 13.056C25.8286 13.056 25.8254 13.0527 25.8254 13.0487V8.40188Z" fill="#122262"/>
<path d="M8.13086 10.9189C8.13086 10.707 8.36257 10.5765 8.54384 10.6863L13.8538 13.9045C13.9351 13.9538 13.9848 14.042 13.9848 14.1371V25.5971C13.9848 25.7473 13.863 25.8691 13.7128 25.8691H8.40286C8.25264 25.8691 8.13086 25.7473 8.13086 25.5971V10.9189Z" fill="#335CFF"/>
<path d="M8.08594 14.0965C8.08594 14.0243 8.11459 13.9551 8.1656 13.9041L13.4755 8.59422C13.6469 8.42287 13.9398 8.54422 13.9398 8.78655V25.597C13.9398 25.7472 13.8181 25.869 13.6679 25.869H8.35794C8.20772 25.869 8.08594 25.7472 8.08594 25.597V14.0965Z" fill="#122262"/>
<path d="M39.584 26V9.61H41.916L50.936 21.754L49.726 21.996V9.61H52.718V26H50.364L41.476 13.768L42.576 13.526V26H39.584ZM61.3246 26.264C60.0926 26.264 59.0146 25.9853 58.0906 25.428C57.1666 24.8707 56.448 24.1153 55.9346 23.162C55.4213 22.2087 55.1646 21.1527 55.1646 19.994C55.1646 18.7913 55.4213 17.728 55.9346 16.804C56.4626 15.8653 57.174 15.1247 58.0686 14.582C58.978 14.0393 59.99 13.768 61.1046 13.768C62.0433 13.768 62.8646 13.922 63.5686 14.23C64.2873 14.538 64.896 14.9633 65.3946 15.506C65.8933 16.0487 66.2746 16.672 66.5386 17.376C66.8026 18.0653 66.9346 18.8133 66.9346 19.62C66.9346 19.8253 66.92 20.038 66.8906 20.258C66.876 20.478 66.8393 20.6687 66.7806 20.83H57.5406V18.63H65.1526L63.7886 19.664C63.9206 18.9893 63.884 18.388 63.6786 17.86C63.488 17.332 63.1653 16.914 62.7106 16.606C62.2706 16.298 61.7353 16.144 61.1046 16.144C60.5033 16.144 59.968 16.298 59.4986 16.606C59.0293 16.8993 58.67 17.3393 58.4206 17.926C58.186 18.498 58.098 19.1947 58.1566 20.016C58.098 20.7493 58.1933 21.402 58.4426 21.974C58.7066 22.5313 59.088 22.964 59.5866 23.272C60.1 23.58 60.6866 23.734 61.3466 23.734C62.0066 23.734 62.564 23.5947 63.0186 23.316C63.488 23.0373 63.8546 22.6633 64.1186 22.194L66.4506 23.338C66.216 23.91 65.8493 24.416 65.3506 24.856C64.852 25.296 64.258 25.6407 63.5686 25.89C62.894 26.1393 62.146 26.264 61.3246 26.264ZM67.8265 26L72.0065 19.994L67.8045 14.032H71.1925L74.4705 18.872H72.9525L76.2305 14.032H79.5965L75.4165 19.994L79.5745 26H76.2085L72.9745 21.182H74.4485L71.2145 26H67.8265ZM84.5872 26.264C83.7512 26.264 83.0252 26.1247 82.4092 25.846C81.7932 25.5673 81.3166 25.1713 80.9792 24.658C80.6419 24.13 80.4732 23.5213 80.4732 22.832C80.4732 22.172 80.6199 21.5853 80.9132 21.072C81.2066 20.544 81.6612 20.104 82.2772 19.752C82.8932 19.4 83.6706 19.1507 84.6092 19.004L88.5252 18.366V20.566L85.1592 21.138C84.5872 21.2407 84.1619 21.424 83.8832 21.688C83.6046 21.952 83.4652 22.2967 83.4652 22.722C83.4652 23.1327 83.6192 23.4627 83.9272 23.712C84.2499 23.9467 84.6459 24.064 85.1152 24.064C85.7166 24.064 86.2446 23.9393 86.6992 23.69C87.1686 23.426 87.5279 23.0667 87.7772 22.612C88.0412 22.1573 88.1732 21.6587 88.1732 21.116V16.606H81.7272V14.032H91.0552V26H88.3272V23.954L88.9432 23.91C88.6352 24.4233 88.2686 24.856 87.8432 25.208C87.4179 25.5453 86.9339 25.8093 86.3912 26C85.8486 26.176 85.2472 26.264 84.5872 26.264ZM94.313 26V9.61H99.703C101.331 9.61 102.746 9.94733 103.949 10.622C105.152 11.282 106.083 12.228 106.743 13.46C107.403 14.6773 107.733 16.122 107.733 17.794C107.733 19.4513 107.403 20.896 106.743 22.128C106.083 23.36 105.152 24.3133 103.949 24.988C102.746 25.6627 101.331 26 99.703 26H94.313ZM96.073 24.35H99.703C100.964 24.35 102.057 24.086 102.981 23.558C103.905 23.0153 104.616 22.2527 105.115 21.27C105.628 20.2873 105.885 19.1287 105.885 17.794C105.885 16.4593 105.628 15.308 105.115 14.34C104.602 13.3573 103.883 12.602 102.959 12.074C102.035 11.5313 100.95 11.26 99.703 11.26H96.073V24.35ZM113.594 26.264C112.846 26.264 112.179 26.1247 111.592 25.846C111.006 25.5527 110.544 25.1567 110.206 24.658C109.869 24.1593 109.7 23.5873 109.7 22.942C109.7 22.326 109.832 21.7687 110.096 21.27C110.36 20.7567 110.771 20.324 111.328 19.972C111.886 19.62 112.597 19.3707 113.462 19.224L118.082 18.454V19.95L113.858 20.654C113.008 20.8007 112.392 21.072 112.01 21.468C111.644 21.864 111.46 22.3333 111.46 22.876C111.46 23.404 111.666 23.8513 112.076 24.218C112.502 24.5847 113.044 24.768 113.704 24.768C114.511 24.768 115.215 24.5993 115.816 24.262C116.418 23.91 116.887 23.4407 117.224 22.854C117.562 22.2673 117.73 21.6147 117.73 20.896V15.858H110.8V14.208H119.38V26H117.73V23.646L117.972 23.888C117.767 24.328 117.444 24.7313 117.004 25.098C116.579 25.45 116.073 25.736 115.486 25.956C114.914 26.1613 114.284 26.264 113.594 26.264ZM126.866 26.264C125.737 26.264 124.747 25.978 123.896 25.406C123.045 24.834 122.429 24.0567 122.048 23.074L123.434 22.414C123.771 23.1327 124.241 23.7047 124.842 24.13C125.458 24.5553 126.133 24.768 126.866 24.768C127.57 24.768 128.164 24.5993 128.648 24.262C129.132 23.91 129.374 23.4553 129.374 22.898C129.374 22.4873 129.257 22.1647 129.022 21.93C128.787 21.6807 128.516 21.49 128.208 21.358C127.9 21.226 127.629 21.1307 127.394 21.072L125.7 20.588C124.615 20.28 123.83 19.8473 123.346 19.29C122.862 18.7327 122.62 18.0873 122.62 17.354C122.62 16.6647 122.796 16.0633 123.148 15.55C123.5 15.0367 123.977 14.6407 124.578 14.362C125.179 14.0833 125.847 13.944 126.58 13.944C127.577 13.944 128.479 14.208 129.286 14.736C130.107 15.2493 130.687 15.968 131.024 16.892L129.616 17.552C129.323 16.892 128.897 16.3787 128.34 16.012C127.797 15.6307 127.189 15.44 126.514 15.44C125.854 15.44 125.326 15.6087 124.93 15.946C124.534 16.2833 124.336 16.7087 124.336 17.222C124.336 17.618 124.439 17.9333 124.644 18.168C124.849 18.4027 125.084 18.5787 125.348 18.696C125.627 18.8133 125.869 18.9013 126.074 18.96L128.032 19.532C128.985 19.8107 129.726 20.2433 130.254 20.83C130.797 21.4167 131.068 22.106 131.068 22.898C131.068 23.5433 130.885 24.1227 130.518 24.636C130.166 25.1493 129.675 25.5527 129.044 25.846C128.413 26.1247 127.687 26.264 126.866 26.264ZM141.777 26V15.858H135.111V14.208H143.427V26H141.777ZM133.967 26V9.346H135.617V26H133.967Z" fill="white"/>
</svg>
