<svg width="145" height="34" viewBox="0 0 145 34" fill="none" xmlns="http://www.w3.org/2000/svg">
<path d="M13.4154 0.971242C15.6336 -0.323585 18.3664 -0.323585 20.5846 0.971242L28.9372 5.84697C31.1553 7.1418 32.5217 9.53474 32.5217 12.1244V21.8759C32.5217 24.4655 31.1553 26.8584 28.9372 28.1533L20.5846 33.029C18.3664 34.3238 15.6336 34.3238 13.4154 33.029L5.06286 28.1533C2.84471 26.8584 1.47827 24.4655 1.47827 21.8759V12.1244C1.47827 9.53474 2.84471 7.1418 5.06286 5.84697L13.4154 0.971242Z" fill="#335CFF"/>
<path fill-rule="evenodd" clip-rule="evenodd" d="M25.8254 8.402C25.8254 8.25178 25.7036 8.13 25.5534 8.13H14.6109C14.3666 8.13 14.2462 8.42705 14.4215 8.59719L19.9672 13.9798C19.9699 13.9824 19.9736 13.9839 19.9774 13.9839C19.9855 13.9839 19.992 13.9905 19.992 13.9986V25.5681C19.992 25.7183 20.1138 25.8401 20.264 25.8401H25.568C25.7183 25.8401 25.84 25.7183 25.84 25.5681V13.0635C25.84 13.0594 25.8368 13.0561 25.8327 13.0561C25.8287 13.0561 25.8254 13.0528 25.8254 13.0488V8.402Z" fill="white"/>
<path d="M8.13062 10.9191C8.13062 10.7071 8.36232 10.5766 8.54359 10.6864L13.8535 13.9046C13.9348 13.9539 13.9845 14.0421 13.9845 14.1372V25.5972C13.9845 25.7474 13.8627 25.8692 13.7125 25.8692H8.40262C8.25239 25.8692 8.13062 25.7474 8.13062 25.5972V10.9191Z" fill="#122262"/>
<path d="M8.08569 14.0966C8.08569 14.0244 8.11435 13.9553 8.16536 13.9042L13.4753 8.59434C13.6466 8.42299 13.9396 8.54434 13.9396 8.78667V25.5971C13.9396 25.7474 13.8178 25.8691 13.6676 25.8691H8.35769C8.20747 25.8691 8.08569 25.7473 8.08569 25.5971V14.0966Z" fill="white"/>
<path d="M39.584 25V8.61H41.916L50.936 20.754L49.726 20.996V8.61H52.718V25H50.364L41.476 12.768L42.576 12.526V25H39.584ZM61.3246 25.264C60.0926 25.264 59.0146 24.9853 58.0906 24.428C57.1666 23.8707 56.448 23.1153 55.9346 22.162C55.4213 21.2087 55.1646 20.1527 55.1646 18.994C55.1646 17.7913 55.4213 16.728 55.9346 15.804C56.4626 14.8653 57.174 14.1247 58.0686 13.582C58.978 13.0393 59.99 12.768 61.1046 12.768C62.0433 12.768 62.8646 12.922 63.5686 13.23C64.2873 13.538 64.896 13.9633 65.3946 14.506C65.8933 15.0487 66.2746 15.672 66.5386 16.376C66.8026 17.0653 66.9346 17.8133 66.9346 18.62C66.9346 18.8253 66.92 19.038 66.8906 19.258C66.876 19.478 66.8393 19.6687 66.7806 19.83H57.5406V17.63H65.1526L63.7886 18.664C63.9206 17.9893 63.884 17.388 63.6786 16.86C63.488 16.332 63.1653 15.914 62.7106 15.606C62.2706 15.298 61.7353 15.144 61.1046 15.144C60.5033 15.144 59.968 15.298 59.4986 15.606C59.0293 15.8993 58.67 16.3393 58.4206 16.926C58.186 17.498 58.098 18.1947 58.1566 19.016C58.098 19.7493 58.1933 20.402 58.4426 20.974C58.7066 21.5313 59.088 21.964 59.5866 22.272C60.1 22.58 60.6866 22.734 61.3466 22.734C62.0066 22.734 62.564 22.5947 63.0186 22.316C63.488 22.0373 63.8546 21.6633 64.1186 21.194L66.4506 22.338C66.216 22.91 65.8493 23.416 65.3506 23.856C64.852 24.296 64.258 24.6407 63.5686 24.89C62.894 25.1393 62.146 25.264 61.3246 25.264ZM67.8265 25L72.0065 18.994L67.8045 13.032H71.1925L74.4705 17.872H72.9525L76.2305 13.032H79.5965L75.4165 18.994L79.5745 25H76.2085L72.9745 20.182H74.4485L71.2145 25H67.8265ZM84.5872 25.264C83.7512 25.264 83.0252 25.1247 82.4092 24.846C81.7932 24.5673 81.3166 24.1713 80.9792 23.658C80.6419 23.13 80.4732 22.5213 80.4732 21.832C80.4732 21.172 80.6199 20.5853 80.9132 20.072C81.2066 19.544 81.6612 19.104 82.2772 18.752C82.8932 18.4 83.6706 18.1507 84.6092 18.004L88.5252 17.366V19.566L85.1592 20.138C84.5872 20.2407 84.1619 20.424 83.8832 20.688C83.6046 20.952 83.4652 21.2967 83.4652 21.722C83.4652 22.1327 83.6192 22.4627 83.9272 22.712C84.2499 22.9467 84.6459 23.064 85.1152 23.064C85.7166 23.064 86.2446 22.9393 86.6992 22.69C87.1686 22.426 87.5279 22.0667 87.7772 21.612C88.0412 21.1573 88.1732 20.6587 88.1732 20.116V15.606H81.7272V13.032H91.0552V25H88.3272V22.954L88.9432 22.91C88.6352 23.4233 88.2686 23.856 87.8432 24.208C87.4179 24.5453 86.9339 24.8093 86.3912 25C85.8486 25.176 85.2472 25.264 84.5872 25.264ZM94.313 25V8.61H99.703C101.331 8.61 102.746 8.94733 103.949 9.622C105.152 10.282 106.083 11.228 106.743 12.46C107.403 13.6773 107.733 15.122 107.733 16.794C107.733 18.4513 107.403 19.896 106.743 21.128C106.083 22.36 105.152 23.3133 103.949 23.988C102.746 24.6627 101.331 25 99.703 25H94.313ZM96.073 23.35H99.703C100.964 23.35 102.057 23.086 102.981 22.558C103.905 22.0153 104.616 21.2527 105.115 20.27C105.628 19.2873 105.885 18.1287 105.885 16.794C105.885 15.4593 105.628 14.308 105.115 13.34C104.602 12.3573 103.883 11.602 102.959 11.074C102.035 10.5313 100.95 10.26 99.703 10.26H96.073V23.35ZM113.594 25.264C112.846 25.264 112.179 25.1247 111.592 24.846C111.006 24.5527 110.544 24.1567 110.206 23.658C109.869 23.1593 109.7 22.5873 109.7 21.942C109.7 21.326 109.832 20.7687 110.096 20.27C110.36 19.7567 110.771 19.324 111.328 18.972C111.886 18.62 112.597 18.3707 113.462 18.224L118.082 17.454V18.95L113.858 19.654C113.008 19.8007 112.392 20.072 112.01 20.468C111.644 20.864 111.46 21.3333 111.46 21.876C111.46 22.404 111.666 22.8513 112.076 23.218C112.502 23.5847 113.044 23.768 113.704 23.768C114.511 23.768 115.215 23.5993 115.816 23.262C116.418 22.91 116.887 22.4407 117.224 21.854C117.562 21.2673 117.73 20.6147 117.73 19.896V14.858H110.8V13.208H119.38V25H117.73V22.646L117.972 22.888C117.767 23.328 117.444 23.7313 117.004 24.098C116.579 24.45 116.073 24.736 115.486 24.956C114.914 25.1613 114.284 25.264 113.594 25.264ZM126.866 25.264C125.737 25.264 124.747 24.978 123.896 24.406C123.045 23.834 122.429 23.0567 122.048 22.074L123.434 21.414C123.771 22.1327 124.241 22.7047 124.842 23.13C125.458 23.5553 126.133 23.768 126.866 23.768C127.57 23.768 128.164 23.5993 128.648 23.262C129.132 22.91 129.374 22.4553 129.374 21.898C129.374 21.4873 129.257 21.1647 129.022 20.93C128.787 20.6807 128.516 20.49 128.208 20.358C127.9 20.226 127.629 20.1307 127.394 20.072L125.7 19.588C124.615 19.28 123.83 18.8473 123.346 18.29C122.862 17.7327 122.62 17.0873 122.62 16.354C122.62 15.6647 122.796 15.0633 123.148 14.55C123.5 14.0367 123.977 13.6407 124.578 13.362C125.179 13.0833 125.847 12.944 126.58 12.944C127.577 12.944 128.479 13.208 129.286 13.736C130.107 14.2493 130.687 14.968 131.024 15.892L129.616 16.552C129.323 15.892 128.897 15.3787 128.34 15.012C127.797 14.6307 127.189 14.44 126.514 14.44C125.854 14.44 125.326 14.6087 124.93 14.946C124.534 15.2833 124.336 15.7087 124.336 16.222C124.336 16.618 124.439 16.9333 124.644 17.168C124.849 17.4027 125.084 17.5787 125.348 17.696C125.627 17.8133 125.869 17.9013 126.074 17.96L128.032 18.532C128.985 18.8107 129.726 19.2433 130.254 19.83C130.797 20.4167 131.068 21.106 131.068 21.898C131.068 22.5433 130.885 23.1227 130.518 23.636C130.166 24.1493 129.675 24.5527 129.044 24.846C128.413 25.1247 127.687 25.264 126.866 25.264ZM141.777 25V14.858H135.111V13.208H143.427V25H141.777ZM133.967 25V8.346H135.617V25H133.967Z" fill="#122262"/>
</svg>
