<svg width="160" height="38" viewBox="0 0 160 38" fill="none" xmlns="http://www.w3.org/2000/svg">
<path d="M14.9939 1.08537C17.473 -0.36179 20.5274 -0.36179 23.0065 1.08537L32.3417 6.53471C34.8208 7.98187 36.348 10.6563 36.348 13.5507V24.4493C36.348 27.3437 34.8208 30.0181 32.3417 31.4653L23.0065 36.9146C20.5274 38.3618 17.473 38.3618 14.9939 36.9146L5.65865 31.4653C3.17954 30.0181 1.65234 27.3437 1.65234 24.4493V13.5507C1.65234 10.6563 3.17954 7.98187 5.65865 6.53471L14.9939 1.08537Z" fill="#335CFF"/>
<path fill-rule="evenodd" clip-rule="evenodd" d="M28.8618 9.38908C28.8618 9.22119 28.7257 9.08508 28.5578 9.08508H16.328C16.055 9.08508 15.9204 9.41707 16.1163 9.60723L22.3142 15.6229C22.3174 15.626 22.3217 15.6277 22.3262 15.6277C22.3356 15.6277 22.3433 15.6354 22.3433 15.6448V28.5728C22.3433 28.7407 22.4794 28.8768 22.6473 28.8768H28.5753C28.7432 28.8768 28.8793 28.7407 28.8793 28.5728V14.5976C28.8793 14.5927 28.8754 14.5888 28.8706 14.5888C28.8657 14.5888 28.8618 14.5849 28.8618 14.5801V9.38908Z" fill="white"/>
<path d="M9.08691 12.2038C9.08691 11.9669 9.34588 11.821 9.54848 11.9438L15.4831 15.5405C15.574 15.5956 15.6295 15.6942 15.6295 15.8005V28.6088C15.6295 28.7767 15.4934 28.9128 15.3255 28.9128H9.39091C9.22302 28.9128 9.08691 28.7767 9.08691 28.6088V12.2038Z" fill="#122262"/>
<path d="M9.03711 15.7545C9.03711 15.6738 9.06914 15.5965 9.12615 15.5395L15.0608 9.6049C15.2523 9.41339 15.5797 9.54902 15.5797 9.81986V28.608C15.5797 28.7759 15.4436 28.912 15.2757 28.912H9.34111C9.17322 28.912 9.03711 28.7759 9.03711 28.608V15.7545Z" fill="white"/>
<path d="M44.728 29V11.12H47.272L57.112 24.368L55.792 24.632V11.12H59.056V29H56.488L46.792 15.656L47.992 15.392V29H44.728ZM68.4451 29.288C67.1011 29.288 65.9251 28.984 64.9171 28.376C63.9091 27.768 63.1251 26.944 62.5651 25.904C62.0051 24.864 61.7251 23.712 61.7251 22.448C61.7251 21.136 62.0051 19.976 62.5651 18.968C63.1411 17.944 63.9171 17.136 64.8931 16.544C65.8851 15.952 66.9891 15.656 68.2051 15.656C69.2291 15.656 70.1251 15.824 70.8931 16.16C71.6771 16.496 72.3411 16.96 72.8851 17.552C73.4291 18.144 73.8451 18.824 74.1331 19.592C74.4211 20.344 74.5651 21.16 74.5651 22.04C74.5651 22.264 74.5491 22.496 74.5171 22.736C74.5011 22.976 74.4611 23.184 74.3971 23.36H64.3171V20.96H72.6211L71.1331 22.088C71.2771 21.352 71.2371 20.696 71.0131 20.12C70.8051 19.544 70.4531 19.088 69.9571 18.752C69.4771 18.416 68.8931 18.248 68.2051 18.248C67.5491 18.248 66.9651 18.416 66.4531 18.752C65.9411 19.072 65.5491 19.552 65.2771 20.192C65.0211 20.816 64.9251 21.576 64.9891 22.472C64.9251 23.272 65.0291 23.984 65.3011 24.608C65.5891 25.216 66.0051 25.688 66.5491 26.024C67.1091 26.36 67.7491 26.528 68.4691 26.528C69.1891 26.528 69.7971 26.376 70.2931 26.072C70.8051 25.768 71.2051 25.36 71.4931 24.848L74.0371 26.096C73.7811 26.72 73.3811 27.272 72.8371 27.752C72.2931 28.232 71.6451 28.608 70.8931 28.88C70.1571 29.152 69.3411 29.288 68.4451 29.288ZM75.538 29L80.098 22.448L75.514 15.944H79.21L82.786 21.224H81.13L84.706 15.944H88.378L83.818 22.448L88.354 29H84.682L81.154 23.744H82.762L79.234 29H75.538ZM93.8224 29.288C92.9104 29.288 92.1184 29.136 91.4464 28.832C90.7744 28.528 90.2544 28.096 89.8864 27.536C89.5184 26.96 89.3344 26.296 89.3344 25.544C89.3344 24.824 89.4944 24.184 89.8144 23.624C90.1344 23.048 90.6304 22.568 91.3024 22.184C91.9744 21.8 92.8224 21.528 93.8464 21.368L98.1184 20.672V23.072L94.4464 23.696C93.8224 23.808 93.3584 24.008 93.0544 24.296C92.7504 24.584 92.5984 24.96 92.5984 25.424C92.5984 25.872 92.7664 26.232 93.1024 26.504C93.4544 26.76 93.8864 26.888 94.3984 26.888C95.0544 26.888 95.6304 26.752 96.1264 26.48C96.6384 26.192 97.0304 25.8 97.3024 25.304C97.5904 24.808 97.7344 24.264 97.7344 23.672V18.752H90.7024V15.944H100.878V29H97.9024V26.768L98.5744 26.72C98.2384 27.28 97.8384 27.752 97.3744 28.136C96.9104 28.504 96.3824 28.792 95.7904 29C95.1984 29.192 94.5424 29.288 93.8224 29.288ZM104.432 29V11.12H110.312C112.088 11.12 113.632 11.488 114.944 12.224C116.256 12.944 117.272 13.976 117.992 15.32C118.712 16.648 119.072 18.224 119.072 20.048C119.072 21.856 118.712 23.432 117.992 24.776C117.272 26.12 116.256 27.16 114.944 27.896C113.632 28.632 112.088 29 110.312 29H104.432ZM106.352 27.2H110.312C111.688 27.2 112.88 26.912 113.888 26.336C114.896 25.744 115.672 24.912 116.216 23.84C116.776 22.768 117.056 21.504 117.056 20.048C117.056 18.592 116.776 17.336 116.216 16.28C115.656 15.208 114.872 14.384 113.864 13.808C112.856 13.216 111.672 12.92 110.312 12.92H106.352V27.2ZM125.466 29.288C124.65 29.288 123.922 29.136 123.282 28.832C122.642 28.512 122.138 28.08 121.77 27.536C121.402 26.992 121.218 26.368 121.218 25.664C121.218 24.992 121.362 24.384 121.65 23.84C121.938 23.28 122.386 22.808 122.994 22.424C123.602 22.04 124.378 21.768 125.322 21.608L130.362 20.768V22.4L125.754 23.168C124.826 23.328 124.154 23.624 123.738 24.056C123.338 24.488 123.138 25 123.138 25.592C123.138 26.168 123.362 26.656 123.81 27.056C124.274 27.456 124.866 27.656 125.586 27.656C126.466 27.656 127.234 27.472 127.89 27.104C128.546 26.72 129.058 26.208 129.426 25.568C129.794 24.928 129.978 24.216 129.978 23.432V17.936H122.418V16.136H131.778V29H129.978V26.432L130.242 26.696C130.018 27.176 129.666 27.616 129.186 28.016C128.722 28.4 128.17 28.712 127.53 28.952C126.906 29.176 126.218 29.288 125.466 29.288ZM139.945 29.288C138.713 29.288 137.633 28.976 136.705 28.352C135.777 27.728 135.105 26.88 134.689 25.808L136.201 25.088C136.569 25.872 137.081 26.496 137.737 26.96C138.409 27.424 139.145 27.656 139.945 27.656C140.713 27.656 141.361 27.472 141.889 27.104C142.417 26.72 142.681 26.224 142.681 25.616C142.681 25.168 142.553 24.816 142.297 24.56C142.041 24.288 141.745 24.08 141.409 23.936C141.073 23.792 140.777 23.688 140.521 23.624L138.673 23.096C137.489 22.76 136.633 22.288 136.105 21.68C135.577 21.072 135.313 20.368 135.313 19.568C135.313 18.816 135.505 18.16 135.889 17.6C136.273 17.04 136.793 16.608 137.449 16.304C138.105 16 138.833 15.848 139.633 15.848C140.721 15.848 141.705 16.136 142.585 16.712C143.481 17.272 144.113 18.056 144.481 19.064L142.945 19.784C142.625 19.064 142.161 18.504 141.553 18.104C140.961 17.688 140.297 17.48 139.561 17.48C138.841 17.48 138.265 17.664 137.833 18.032C137.401 18.4 137.185 18.864 137.185 19.424C137.185 19.856 137.297 20.2 137.521 20.456C137.745 20.712 138.001 20.904 138.289 21.032C138.593 21.16 138.857 21.256 139.081 21.32L141.217 21.944C142.257 22.248 143.065 22.72 143.641 23.36C144.233 24 144.529 24.752 144.529 25.616C144.529 26.32 144.329 26.952 143.929 27.512C143.545 28.072 143.009 28.512 142.321 28.832C141.633 29.136 140.841 29.288 139.945 29.288ZM156.212 29V17.936H148.94V16.136H158.012V29H156.212ZM147.692 29V10.832H149.492V29H147.692Z" fill="white"/>
</svg>
