<svg width="120" height="84" viewBox="0 0 120 84" fill="none" xmlns="http://www.w3.org/2000/svg">
<path d="M21.2498 24.4569C21.5365 23.9547 22.0293 23.6052 22.7281 23.4085C23.6249 23.189 24.5469 23.0898 25.4698 23.1135C26.5976 23.1135 27.502 23.2297 28.1831 23.4619C28.8643 23.6941 29.3481 24.0708 29.6348 24.5919C29.8932 25.0298 30.0663 25.5128 30.1448 26.0152C30.2089 26.6403 30.2361 27.2686 30.2265 27.8969V57.7819C30.2265 59.1785 30.0559 60.2085 29.7148 60.8719C29.5609 61.1877 29.3429 61.4679 29.0745 61.6946C28.8062 61.9213 28.4935 62.0896 28.1565 62.1885C27.3081 62.4234 26.4298 62.5323 25.5498 62.5119C24.5098 62.5119 23.6859 62.4219 23.0781 62.2419C22.5764 62.1145 22.1024 61.8959 21.6798 61.5969C21.3403 61.3204 21.0961 60.9444 20.9815 60.5219C20.7659 59.913 20.6581 58.9813 20.6581 57.7269V51.1702H6.09314C3.58536 51.1702 2.09814 50.4897 1.63147 49.1285C1.4296 48.3752 1.33919 47.5964 1.36314 46.8169C1.34469 46.0964 1.40054 45.3759 1.52981 44.6669L5.99147 26.6669C6.20703 25.8435 6.39536 25.2163 6.55647 24.7852C6.76087 24.2941 7.09219 23.8661 7.51647 23.5452C8.0455 23.1351 8.70266 22.9254 9.37147 22.9535C10.2108 22.9647 11.0447 23.0909 11.8498 23.3285C14.3576 24.0085 15.612 25.1552 15.6131 26.7686C15.5822 27.5335 15.4556 28.2916 15.2365 29.0252C15.2067 29.0762 15.1885 29.1331 15.1831 29.1919L11.9048 42.3069H20.6648V27.6402C20.6536 27.028 20.6809 26.4157 20.7465 25.8069C20.8274 25.3291 20.9982 24.871 21.2498 24.4569Z" fill="white"/>
<path d="M25.5515 63.012C24.4515 63.012 23.5964 62.917 22.9381 62.722C22.3762 62.5779 21.846 62.3304 21.3748 61.992C20.9561 61.6552 20.6531 61.196 20.5081 60.6786C20.2748 60.012 20.1598 59.0453 20.1598 57.727V51.6703H6.09478C3.35978 51.6703 1.69978 50.8687 1.15978 49.2887C0.959783 48.652 0.864783 47.847 0.864783 46.817C0.840795 46.0588 0.896658 45.3002 1.03145 44.5536L5.50145 26.5453C5.72478 25.6886 5.91478 25.0586 6.08312 24.6086C6.32168 24.0352 6.70817 23.5355 7.20311 23.1603C7.82033 22.6787 8.58737 22.4297 9.36978 22.457C10.2525 22.4706 11.1293 22.6034 11.9764 22.852C14.7148 23.5953 16.1048 24.9153 16.1048 26.7736C16.0755 27.5827 15.9433 28.3847 15.7115 29.1603L15.6981 29.2086L15.6748 29.2536L15.6614 29.3086L12.5381 41.8086H20.1581V27.642C20.1473 27.0092 20.1757 26.3763 20.2431 25.747C20.3343 25.2031 20.5296 24.6819 20.8181 24.212C21.1698 23.5953 21.7681 23.1636 22.5931 22.9303C23.5345 22.6992 24.5024 22.5938 25.4714 22.617C26.6481 22.617 27.6164 22.7436 28.3464 22.992C29.1448 23.267 29.7264 23.7236 30.0748 24.352C30.363 24.8467 30.5558 25.3911 30.6431 25.957C30.7093 26.6025 30.7376 27.2514 30.7281 27.9003V57.782C30.7281 59.282 30.5431 60.3587 30.1614 61.1003C29.9773 61.4758 29.7172 61.8089 29.3976 62.0786C29.078 62.3483 28.7059 62.5486 28.3048 62.667C27.4088 62.9159 26.4812 63.0321 25.5515 63.012ZM9.37312 23.452C8.81981 23.4237 8.27451 23.5933 7.83478 23.9303C7.47847 24.1952 7.19753 24.5485 7.01978 24.9553C6.86478 25.3653 6.68645 25.982 6.46978 26.7887L2.01812 44.787C1.90083 45.457 1.85169 46.1371 1.87145 46.817C1.84784 47.5473 1.93037 48.2771 2.11645 48.9836C2.49978 50.102 3.84145 50.6753 6.10145 50.6753H21.1665V57.732C21.1665 58.9236 21.2665 59.8087 21.4615 60.362V60.382C21.5432 60.709 21.7278 61.0011 21.9881 61.2153C22.3611 61.4758 22.7785 61.6662 23.2198 61.777C23.7781 61.9436 24.5631 62.0253 25.5531 62.0253C26.3857 62.0419 27.2162 61.9363 28.0181 61.712C28.2914 61.6326 28.545 61.4966 28.7624 61.3128C28.9797 61.129 29.156 60.9016 29.2798 60.6453C29.5814 60.057 29.7348 59.0936 29.7348 57.7836V27.897C29.7433 27.2894 29.7177 26.6817 29.6581 26.077C29.5848 25.6376 29.4312 25.2156 29.2048 24.832C28.9781 24.422 28.5931 24.1286 28.0298 23.9353C27.4031 23.722 26.5448 23.6136 25.4781 23.6136C24.6009 23.5911 23.7244 23.6841 22.8714 23.8903C22.2998 24.057 21.9131 24.3186 21.6931 24.7053C21.4728 25.0631 21.3208 25.4587 21.2448 25.872C21.1838 26.4566 21.1582 27.0443 21.1681 27.632V42.7986H11.2581L14.6848 29.102C14.6989 29.0156 14.7247 28.9315 14.7614 28.852C14.9628 28.1745 15.0798 27.4748 15.1098 26.7687C15.1098 25.3987 13.9998 24.4353 11.7164 23.8103C10.9551 23.5858 10.1668 23.4653 9.37312 23.452Z" fill="#171718"/>
<path d="M101.086 24.4569C101.372 23.9547 101.865 23.6052 102.564 23.4085C103.461 23.189 104.383 23.0898 105.306 23.1135C106.434 23.1135 107.338 23.2297 108.019 23.4619C108.7 23.6941 109.184 24.0708 109.471 24.5919C109.729 25.0298 109.902 25.5128 109.981 26.0152C110.045 26.6403 110.072 27.2686 110.062 27.8969V57.7819C110.062 59.1785 109.892 60.2085 109.551 60.8719C109.397 61.1877 109.179 61.4679 108.91 61.6946C108.642 61.9213 108.329 62.0896 107.992 62.1885C107.144 62.4234 106.266 62.5323 105.386 62.5119C104.346 62.5119 103.522 62.4219 102.914 62.2419C102.412 62.1145 101.938 61.8959 101.516 61.5969C101.176 61.3204 100.932 60.9444 100.817 60.5219C100.603 59.913 100.495 58.9813 100.494 57.7269V51.1702H85.9291C83.4202 51.1702 81.933 50.4897 81.4674 49.1285C81.2655 48.3752 81.1751 47.5964 81.1991 46.8169C81.1806 46.0964 81.2365 45.3759 81.3657 44.6669L85.8274 26.6669C86.043 25.8435 86.2313 25.2163 86.3924 24.7852C86.5968 24.2941 86.9281 23.8661 87.3524 23.5452C87.8814 23.1351 88.5386 22.9254 89.2074 22.9535C90.0468 22.9647 90.8806 23.0909 91.6857 23.3285C94.1935 24.0085 95.448 25.1552 95.4491 26.7686C95.4181 27.5335 95.2916 28.2916 95.0724 29.0252C95.0426 29.0762 95.0244 29.1331 95.0191 29.1919L91.7407 42.3069H100.501V27.6402C100.49 27.028 100.517 26.4157 100.582 25.8069C100.663 25.3291 100.834 24.871 101.086 24.4569Z" fill="white"/>
<path d="M105.383 63.012C104.283 63.012 103.428 62.917 102.77 62.722C102.208 62.5779 101.678 62.3304 101.207 61.992C100.788 61.6552 100.485 61.196 100.34 60.6786C100.107 60.012 99.9918 59.0453 99.9918 57.727V51.6703H85.9268C83.1918 51.6703 81.5318 50.8687 80.9918 49.2887C80.7918 48.652 80.6968 47.847 80.6968 46.817C80.6728 46.0588 80.7287 45.3002 80.8635 44.5536L85.3335 26.5453C85.5568 25.6903 85.7468 25.0586 85.9151 24.6086C86.1537 24.0352 86.5402 23.5355 87.0351 23.1603C87.6524 22.6787 88.4194 22.4297 89.2018 22.457C90.0845 22.4706 90.9614 22.6034 91.8085 22.852C94.5468 23.5953 95.9368 24.9153 95.9368 26.7736C95.9075 27.5827 95.7754 28.3847 95.5435 29.1603L95.5301 29.2086L95.5068 29.2536L95.4935 29.3086L92.3701 41.8086H99.9902V27.642C99.9788 27.0091 100.008 26.3762 100.077 25.747C100.167 25.203 100.361 24.6816 100.65 24.212C101.002 23.5953 101.6 23.1636 102.425 22.9303C103.367 22.6992 104.334 22.5938 105.303 22.617C106.48 22.617 107.448 22.7436 108.178 22.992C108.977 23.267 109.558 23.7236 109.905 24.352C110.195 24.8463 110.388 25.3908 110.475 25.957C110.541 26.6025 110.57 27.2514 110.56 27.9003V57.782C110.56 59.282 110.375 60.3587 109.993 61.1003C109.809 61.4758 109.549 61.8089 109.23 62.0786C108.91 62.3483 108.538 62.5486 108.137 62.667C107.241 62.9159 106.313 63.0321 105.383 63.012ZM89.2051 23.452C88.6518 23.4237 88.1065 23.5933 87.6668 23.9303C87.3105 24.1952 87.0296 24.5485 86.8518 24.9553C86.6968 25.367 86.5185 25.982 86.3035 26.7887L81.8501 44.787C81.7329 45.457 81.6837 46.1371 81.7035 46.817C81.6799 47.5473 81.7624 48.2771 81.9485 48.9836C82.3318 50.102 83.6735 50.6753 85.9335 50.6753H100.998V57.732C100.998 58.9253 101.098 59.8087 101.293 60.3603V60.382C101.375 60.709 101.56 61.0011 101.82 61.2153C102.193 61.4758 102.611 61.6662 103.052 61.777C103.61 61.9436 104.395 62.0253 105.385 62.0253C106.218 62.0419 107.048 61.9363 107.85 61.712C108.123 61.6326 108.377 61.4966 108.594 61.3128C108.812 61.129 108.988 60.9016 109.112 60.6453C109.413 60.057 109.567 59.0936 109.567 57.7836V27.897C109.575 27.2894 109.55 26.6817 109.49 26.077C109.417 25.6376 109.263 25.2156 109.037 24.832C108.81 24.422 108.425 24.1286 107.862 23.9353C107.235 23.722 106.377 23.6136 105.31 23.6136C104.433 23.5911 103.556 23.6841 102.703 23.8903C102.132 24.057 101.745 24.3186 101.523 24.7053C101.303 25.063 101.151 25.4586 101.075 25.872C101.014 26.4566 100.989 27.0443 100.998 27.632V42.7986H91.0901L94.5168 29.102C94.5309 29.0156 94.5567 28.9315 94.5935 28.852C94.795 28.1745 94.9119 27.4748 94.9418 26.7687C94.9418 25.3987 93.8318 24.4353 91.5485 23.8103C90.7871 23.5858 89.9988 23.4653 89.2051 23.452Z" fill="#171718"/>
<path d="M30.088 77.572L28.498 77.227L28.1379 75.642C28.1316 75.6148 28.1164 75.5905 28.0946 75.5729C28.0729 75.5554 28.0459 75.5457 28.0179 75.5453C27.9899 75.5451 27.9626 75.5546 27.9407 75.5722C27.9188 75.5898 27.9037 75.6145 27.8979 75.642L27.5363 77.2336L25.9463 77.6103C25.9184 77.616 25.8934 77.6311 25.8754 77.6531C25.8575 77.6752 25.8477 77.7027 25.8477 77.7311C25.8477 77.7595 25.8575 77.7871 25.8754 77.8091C25.8934 77.8311 25.9184 77.8463 25.9463 77.852L27.5363 78.197L27.8963 79.782C27.9021 79.8094 27.9172 79.8341 27.939 79.8517C27.9609 79.8693 27.9882 79.8788 28.0163 79.8786C28.0442 79.8782 28.0712 79.8685 28.093 79.851C28.1147 79.8335 28.13 79.8092 28.1363 79.782L28.498 78.1903L30.088 77.8136C30.1151 77.8069 30.1392 77.7913 30.1565 77.7692C30.1737 77.7471 30.183 77.7199 30.1829 77.692C30.1824 77.6643 30.1728 77.6377 30.1556 77.616C30.1385 77.5943 30.1147 77.5789 30.088 77.572Z" fill="#171718"/>
<path d="M42.7785 9.86016L41.6119 9.60683L41.3502 8.4485C41.3462 8.42801 41.3352 8.40954 41.3191 8.39627C41.303 8.38299 41.2828 8.37573 41.2619 8.37573C41.241 8.37573 41.2208 8.38299 41.2047 8.39627C41.1885 8.40954 41.1775 8.42801 41.1735 8.4485L40.9085 9.61516L39.7419 9.89016C39.7219 9.89472 39.7041 9.90595 39.6913 9.92201C39.6786 9.93807 39.6717 9.958 39.6719 9.9785C39.6719 9.99902 39.6791 10.0189 39.6921 10.0347C39.7052 10.0505 39.7234 10.0613 39.7435 10.0652L40.9102 10.3185L41.1735 11.4768C41.1775 11.4973 41.1885 11.5158 41.2047 11.5291C41.2208 11.5423 41.241 11.5496 41.2619 11.5496C41.2828 11.5496 41.303 11.5423 41.3191 11.5291C41.3352 11.5158 41.3462 11.4973 41.3502 11.4768L41.6135 10.3102L42.7802 10.0335C42.7999 10.0288 42.8173 10.0176 42.8298 10.0017C42.8423 9.98582 42.8491 9.9662 42.8491 9.94599C42.8491 9.92579 42.8423 9.90617 42.8298 9.8903C42.8173 9.87443 42.7999 9.86322 42.7802 9.8585L42.7785 9.86016Z" fill="#171718"/>
<path d="M87.1262 81.307L88.8979 80.9203L89.2995 79.152C89.307 79.1217 89.3243 79.0948 89.3487 79.0754C89.3732 79.0561 89.4034 79.0455 89.4345 79.0453C89.4656 79.0453 89.4957 79.0558 89.5199 79.0752C89.5441 79.0946 89.5611 79.1217 89.5679 79.152L89.9729 80.9286L91.7445 81.3486C91.7757 81.3547 91.8038 81.3714 91.8239 81.3958C91.8441 81.4203 91.8552 81.4511 91.8552 81.4828C91.8552 81.5145 91.8441 81.5453 91.8239 81.5697C91.8038 81.5942 91.7757 81.6109 91.7445 81.617L89.9729 82.0036L89.5695 83.772C89.5627 83.8022 89.5458 83.8293 89.5216 83.8487C89.4973 83.8681 89.4672 83.8786 89.4362 83.8786C89.405 83.8784 89.3748 83.8678 89.3504 83.8485C89.3259 83.8291 89.3086 83.8022 89.3012 83.772L88.8979 81.9953L87.1262 81.5753C87.0957 81.5678 87.0685 81.5502 87.0492 81.5255C87.0298 81.5007 87.0194 81.4701 87.0195 81.4386C87.0196 81.4078 87.0302 81.3779 87.0496 81.354C87.069 81.33 87.0961 81.3134 87.1262 81.307Z" fill="#171718"/>
<path d="M83.9082 73.712L84.8249 73.512L85.0316 72.597C85.0351 72.581 85.0439 72.5667 85.0567 72.5565C85.0694 72.5462 85.0852 72.5406 85.1016 72.5406C85.1179 72.5406 85.1337 72.5462 85.1465 72.5565C85.1592 72.5667 85.1681 72.581 85.1716 72.597L85.3799 73.517L86.2966 73.7336C86.3121 73.7376 86.326 73.7467 86.3359 73.7593C86.3458 73.772 86.3513 73.7875 86.3516 73.8036C86.3515 73.8198 86.3458 73.8355 86.3354 73.8479C86.3251 73.8604 86.3108 73.8689 86.2949 73.872L85.3782 74.072L85.1716 74.987C85.1681 75.0029 85.1592 75.0172 85.1465 75.0274C85.1337 75.0377 85.1179 75.0433 85.1016 75.0433C85.0852 75.0433 85.0694 75.0377 85.0567 75.0274C85.0439 75.0172 85.0351 75.0029 85.0316 74.987L84.8232 74.067L83.9066 73.8503C83.8908 73.8465 83.8769 73.8376 83.8669 73.8249C83.8569 73.8122 83.8515 73.7964 83.8516 73.7803C83.8517 73.7641 83.8573 73.7485 83.8677 73.736C83.878 73.7235 83.8923 73.715 83.9082 73.712Z" fill="#171718"/>
<path d="M77.6544 5.21197C77.6544 5.21197 73.2744 3.64697 66.6761 6.87864C66.5805 6.92106 66.5006 6.99238 66.4477 7.08257C66.3948 7.17276 66.3714 7.27726 66.381 7.3814C66.3906 7.48553 66.4325 7.58404 66.501 7.66307C66.5695 7.74211 66.661 7.79768 66.7627 7.82197C68.3044 8.25697 70.8511 9.03031 71.8811 9.67864L77.6544 5.21197Z" fill="#E0F2FE"/>
<path d="M80.9389 11.6736C80.9389 11.6736 79.6222 16.1353 73.1289 19.5653C73.0384 19.6175 72.9337 19.6401 72.8297 19.6298C72.7257 19.6195 72.6275 19.5769 72.549 19.5079C72.4704 19.4389 72.4155 19.3471 72.3918 19.2453C72.3682 19.1434 72.3771 19.0368 72.4172 18.9403C72.9739 17.4403 73.8489 14.9253 73.9322 13.7119L80.9389 11.6736Z" fill="#E0F2FE"/>
<path d="M72.7817 7.98878C72.2806 8.40322 71.77 8.83989 71.25 9.29878L73.8617 14.4354C74.5383 14.2854 75.1917 14.1299 75.8217 13.9688C85.415 11.5204 89.9267 7.84378 92.0433 5.03045L89.5433 0.123779C86.0333 0.188779 80.4117 1.67878 72.7817 7.98878Z" fill="#171718"/>
<path d="M85.5043 7.56201C86.7708 7.56201 87.7976 6.53525 87.7976 5.26868C87.7976 4.0021 86.7708 2.97534 85.5043 2.97534C84.2377 2.97534 83.2109 4.0021 83.2109 5.26868C83.2109 6.53525 84.2377 7.56201 85.5043 7.56201Z" fill="white"/>
<path d="M92.043 5.03029L89.543 0.123618C92.4146 0.0702846 93.8763 0.970282 93.8763 0.970282L93.898 1.01195C93.898 1.01195 93.773 2.73195 92.043 5.03029Z" fill="#E0F2FE"/>
<path d="M79.0913 8.40053C79.1617 8.53814 79.1779 8.6971 79.1369 8.84609C79.0959 8.99509 79.0005 9.12332 78.8697 9.20553L75.703 11.2055C75.0499 11.6173 74.3603 11.9683 73.643 12.2539L70.1563 13.6355C70.013 13.6925 69.8535 13.6939 69.7091 13.6393C69.5648 13.5847 69.4461 13.4782 69.3763 13.3405C69.306 13.2029 69.2898 13.044 69.3308 12.895C69.3718 12.746 69.4671 12.6177 69.598 12.5355L72.7647 10.5355C73.4174 10.1236 74.1071 9.77321 74.8247 9.48886L78.3113 8.10553C78.4547 8.04851 78.6142 8.04717 78.7586 8.10175C78.9029 8.15633 79.0216 8.26291 79.0913 8.40053Z" fill="#E0F2FE"/>
<path d="M32.3522 7.87894C32.3522 7.87894 31.3406 5.09727 28.6439 5.85727C28.6439 5.85727 28.3106 1.81227 23.9256 1.55893C19.5406 1.3056 18.1956 4.7606 18.1956 4.7606C18.1956 4.7606 14.4872 2.73894 11.9589 5.85727C11.9589 5.85727 9.09391 5.85727 8.50391 7.87894H32.3522Z" fill="white"/>
<path d="M32.8269 8.21217H8.05859L8.18193 7.7855C8.75693 5.81717 11.1453 5.5605 11.7969 5.52717C14.0203 2.92383 17.0603 3.90717 18.0369 4.32217C18.5186 3.43383 20.1836 1.00716 23.9419 1.2255C27.7419 1.4455 28.6936 4.39217 28.9136 5.45217C31.0586 5.05883 32.2969 6.75717 32.6636 7.7655L32.8269 8.21217ZM9.0036 7.5455H31.8219C31.4303 6.8605 30.4786 5.6855 28.7319 6.17717L28.3436 6.28717L28.3103 5.88383C28.2969 5.7305 27.9353 2.12383 23.9036 1.89216C19.8303 1.65716 18.5553 4.7505 18.5036 4.88216L18.3653 5.23383L18.0319 5.05383C17.8903 4.97716 14.5319 3.2055 12.2153 6.0655L12.1153 6.1905H11.9486C11.9336 6.1905 9.7736 6.21217 9.0036 7.5455Z" fill="#171718"/>
<path d="M118.662 14.6273C118.662 14.6273 117.936 12.6273 115.996 13.174C115.996 13.174 115.754 10.2657 112.604 10.084C109.454 9.90232 108.484 12.379 108.484 12.379C108.484 12.379 105.817 10.9257 103.999 13.1673C103.999 13.1673 101.939 13.1673 101.516 14.6207L118.662 14.6273Z" fill="white"/>
<path d="M119.137 14.9605H101.07L101.195 14.5338C101.614 13.1005 103.304 12.8805 103.839 12.8472C105.419 11.0305 107.54 11.6355 108.33 11.9522C108.734 11.2455 109.969 9.59715 112.622 9.75049C115.317 9.90549 116.065 11.9272 116.262 12.7755C117.812 12.5422 118.707 13.7755 118.975 14.5138L119.137 14.9605ZM102.05 14.2938H118.114C117.802 13.8238 117.165 13.1905 116.085 13.4938L115.697 13.6038L115.664 13.2022C115.654 13.0955 115.397 10.5788 112.584 10.4172C109.705 10.2505 108.802 12.4838 108.794 12.5072L108.655 12.8605L108.322 12.6788C108.224 12.6255 105.874 11.3888 104.257 13.3838L104.157 13.5072H103.99C103.984 13.5072 102.642 13.5222 102.05 14.2938Z" fill="#171718"/>
<path d="M67.8835 15.2121C67.9485 15.6955 67.9668 16.4888 66.4002 16.7488C66.4002 16.7488 65.6552 18.4804 63.7335 17.7104C63.7335 17.7104 63.7335 20.0205 61.0385 19.2505C61.0385 19.2505 60.6552 24.2505 56.0385 22.7138C56.0385 22.7138 54.1135 24.6388 52.1902 23.8688C52.1902 23.8688 52.5752 26.9471 49.4968 26.9471C49.4968 26.9471 48.7268 28.8705 46.8018 28.1021C46.8018 28.1021 47.1868 30.4105 44.8785 30.7955C44.8785 30.7955 45.2635 33.4888 42.9535 33.8738C42.9535 33.8738 42.9535 36.9521 41.0302 38.1071C41.0302 38.1071 46.4168 41.1854 43.3385 46.1888C43.3385 46.1888 46.8018 47.3421 44.1085 51.1888C44.1085 51.1888 47.5718 51.9588 45.6485 55.4221C45.6485 55.4221 49.8818 56.1921 47.5718 60.4221C47.5718 60.4221 52.5718 59.2671 53.7285 64.2704C53.7285 64.2704 55.6535 63.8854 56.8085 65.0404C56.8085 65.0404 57.5768 63.1154 59.5018 63.5005C59.5018 63.5005 59.5018 59.2671 63.3502 59.2671C63.3502 59.2671 63.3502 56.1888 66.4285 55.0338C66.4285 55.0338 65.6585 51.9555 67.1985 51.1855C67.1985 51.1855 64.1202 45.7988 69.5068 44.2588C69.5068 44.2588 67.9685 42.3355 69.5068 40.0255C69.5068 40.0255 67.5835 38.8721 67.9685 36.9471C67.9685 36.9471 64.5052 35.7938 65.6585 32.3305C65.6585 32.3305 64.1202 31.5604 64.5052 29.2504C64.5052 29.2504 62.5802 26.5571 65.2735 25.4021C65.2735 25.4021 67.1985 25.0171 67.5835 27.3271C67.5835 27.3271 72.5835 25.7871 72.5835 31.1755C72.5835 31.1755 76.0468 31.5604 74.8935 35.4088C74.8935 35.4088 79.8935 38.1021 74.5085 43.4888C74.5085 43.4888 75.6635 45.0288 74.5085 46.9538C74.5085 46.9538 76.8168 48.8771 74.1235 51.5705C74.1235 51.5705 75.6635 55.4188 71.4301 58.4971C71.4301 58.4971 73.7385 64.2704 67.1968 65.0404C67.1968 65.0404 66.8118 67.7338 64.1185 67.7338C64.1185 67.7338 63.3485 69.6571 61.8085 69.2721C61.8085 69.2721 60.2702 71.9671 57.5752 70.0421C57.5752 70.0421 54.8818 72.3521 52.1885 69.2721C52.1885 69.2721 49.1102 73.8904 44.4918 70.4271C44.4918 70.4271 42.9518 69.2721 42.9518 66.1938C42.9518 66.1938 40.6435 64.2705 41.4135 61.9604C41.4135 61.9604 36.4135 60.8071 37.1802 55.0338C37.1802 55.0338 32.1802 51.5705 36.4102 46.1838C36.4102 46.1838 34.1018 43.8738 37.1802 39.6421C37.1802 39.6421 32.5618 35.0238 38.3352 31.1755C38.3352 31.1755 38.3352 27.7121 41.7985 26.9421C41.7985 26.9421 42.1835 24.6338 44.4918 25.4021C44.4918 25.4021 44.4918 23.4788 46.4152 23.8638C46.4152 23.8638 46.8002 21.9388 49.4952 22.3238C49.4952 22.3238 49.4952 15.7821 56.0368 18.0904C56.0368 18.0904 56.5202 15.7155 59.5002 16.9371C59.5002 16.9371 60.2702 14.2421 62.9635 15.7821C62.9635 15.7821 64.3535 14.3821 65.6568 15.2304C65.6568 15.2304 66.0202 14.0488 67.4902 14.5121C67.7468 14.5921 67.8518 14.9305 67.8835 15.2121Z" fill="white"/>
<path d="M47.8885 72.2121C46.6618 72.2121 45.4218 71.7471 44.1902 70.8238C44.1202 70.7721 42.5235 69.5405 42.4535 66.4155C41.9252 65.9155 40.4402 64.2905 40.8102 62.2888C39.5185 61.8038 36.1435 60.0688 36.6435 55.2538C36.0518 54.7705 34.5852 53.3771 34.2652 51.2538C34.0152 49.5871 34.5218 47.8905 35.7652 46.1838C35.2035 45.3605 34.1868 43.1155 36.5302 39.6738C35.9552 38.9855 34.7352 37.2555 34.9402 35.1738C35.1068 33.5605 36.0752 32.1205 37.8402 30.8888C37.9268 30.0171 38.4335 27.3371 41.3752 26.5188C41.5052 26.1138 41.8085 25.4338 42.4652 25.0388C42.9488 24.758 43.5187 24.6643 44.0668 24.7755C44.1664 24.3584 44.395 23.9833 44.7202 23.7038C45.1037 23.4005 45.5903 23.2582 46.0768 23.3071C46.3735 22.6955 47.1468 21.6838 49.0152 21.7688C49.1152 20.8238 49.5035 18.8921 51.0152 17.8205C52.1952 16.9871 53.7768 16.8638 55.7202 17.4555C55.9371 16.9915 56.2961 16.6086 56.7452 16.3621C57.4118 16.0055 58.2452 15.9838 59.2052 16.2938C59.4833 15.7025 59.9631 15.2298 60.5585 14.9605C61.2418 14.6838 62.0202 14.7521 62.8752 15.1671C63.4668 14.7021 64.4568 14.2255 65.4368 14.5655C65.5864 14.3686 65.7769 14.2066 65.9952 14.0905C66.4535 13.8505 66.9952 13.8288 67.6202 14.0238C67.9018 14.1138 68.2602 14.3771 68.3635 15.1288C68.5118 16.2138 67.9585 16.9021 66.7185 17.1771C66.4679 17.6258 66.0792 17.9817 65.6102 18.1919C65.1412 18.402 64.6169 18.4553 64.1152 18.3438C63.997 18.7954 63.7349 19.1962 63.3685 19.4855C62.8685 19.8571 62.2268 19.9855 61.4368 19.8471C61.2702 20.6555 60.8218 22.1255 59.6035 22.9371C58.6768 23.5521 57.5152 23.6621 56.1468 23.2705C55.6135 23.7255 54.2235 24.7405 52.6768 24.5121C52.6422 25.233 52.3757 25.9234 51.9168 26.4805C51.4168 27.0521 50.7002 27.3705 49.7985 27.4305C49.4118 28.1205 48.5735 28.9405 47.2985 28.7521C47.2805 28.9869 47.2363 29.2189 47.1668 29.4438C47.0461 29.8618 46.8192 30.2413 46.5081 30.5454C46.197 30.8494 45.8124 31.0677 45.3918 31.1788C45.4102 32.2521 45.0135 33.7938 43.4185 34.2688C43.3552 35.0821 43.0852 36.9355 41.8685 38.0738C42.7018 38.6905 44.1318 39.9888 44.6118 41.8705C44.9452 43.2038 44.7535 44.5771 44.0235 45.9621C44.6995 46.3281 45.2169 46.9304 45.4768 47.6538C45.7918 48.6071 45.5818 49.7038 44.8568 50.9238C45.3935 51.1638 46.1218 51.6238 46.4885 52.4388C46.8318 53.2038 46.7835 54.1055 46.3452 55.1055C46.9935 55.3405 47.9785 55.8471 48.4618 56.8605C48.8618 57.6938 48.8385 58.6938 48.3935 59.8171C49.0398 59.7812 49.688 59.8374 50.3185 59.9838C51.6518 60.3055 53.3535 61.2205 54.0868 63.7221C54.6852 63.6788 55.7435 63.7071 56.6385 64.2805C57.0785 63.6338 57.8735 62.9321 59.0152 62.9471C59.1902 61.3388 60.1452 59.0155 62.8785 58.7805C63.0152 57.8421 63.5718 55.7705 65.8368 54.7255C65.6802 53.8521 65.4852 51.9471 66.5385 51.0155C66.1402 50.1588 65.3718 48.1305 66.1102 46.3388C66.5468 45.2688 67.4268 44.4755 68.7352 43.9771C68.4422 43.3797 68.2975 42.7204 68.3135 42.0551C68.3294 41.3898 68.5055 40.7382 68.8268 40.1555C68.2585 39.6905 67.3118 38.6938 67.4052 37.2621C66.1018 36.6738 64.3802 35.1405 65.0602 32.5288C64.5602 32.1205 63.7268 31.1605 63.9652 29.3621C63.7002 28.9271 63.0968 27.7671 63.4118 26.6421C63.6218 25.8921 64.1752 25.3205 65.0602 24.9421L65.1085 24.9205L65.1602 24.9105C65.7854 24.8096 66.4257 24.9463 66.9552 25.2938C67.4396 25.6424 67.7878 26.1485 67.9402 26.7255C68.7435 26.5788 70.3135 26.4521 71.5252 27.3471C72.4702 28.0438 72.9852 29.1921 73.0602 30.7638C73.6018 30.9088 74.5235 31.2638 75.1035 32.1471C75.6335 32.9471 75.7518 33.9671 75.4568 35.1821C76.0468 35.5955 77.2102 36.6021 77.4485 38.2305C77.6918 39.8971 76.9085 41.6821 75.1152 43.5638C75.3746 44.076 75.509 44.6425 75.5073 45.2167C75.5055 45.7909 75.3677 46.3565 75.1052 46.8671C75.5817 47.4141 75.8641 48.1031 75.9085 48.8271C75.9518 49.7971 75.5352 50.7638 74.6685 51.7038C74.9402 52.7221 75.4518 55.9738 72.0018 58.6771C72.2468 59.4871 72.6802 61.4705 71.6852 63.1421C70.9368 64.4005 69.5618 65.1888 67.5968 65.4871C67.3152 66.5488 66.4068 68.0705 64.4302 68.2205C64.0418 68.9571 63.2135 69.9121 62.0302 69.8155C61.7202 70.2288 61.0502 70.9488 60.0468 71.1688C59.2452 71.3355 58.4152 71.1688 57.5718 70.6471C56.7585 71.1671 54.5018 72.2421 52.2135 70.0338C51.6352 70.7005 50.4202 71.8505 48.7018 72.1438C48.4331 72.1892 48.161 72.2121 47.8885 72.2121ZM43.6168 25.7421C43.397 25.7384 43.1806 25.7961 42.9918 25.9088C42.4335 26.2421 42.2902 27.0188 42.2902 27.0255L42.2335 27.3588L41.9002 27.4321C38.8635 28.1071 38.8285 31.0521 38.8285 31.1771V31.4438L38.6052 31.5921C36.9752 32.6788 36.0802 33.9255 35.9385 35.2771C35.7202 37.4438 37.5052 39.2771 37.5218 39.2905L37.8218 39.5921L37.5735 39.9371C34.8068 43.7405 36.6752 45.7505 36.7552 45.8338L37.0585 46.1488L36.7918 46.4938C35.5452 48.0805 35.0252 49.6338 35.2485 51.1121C35.5818 53.3055 37.4352 54.6121 37.4535 54.6255L37.7052 54.7921L37.6635 55.0955C36.9618 60.3571 41.3302 61.4288 41.5135 61.4688L42.0502 61.5921L41.8752 62.1138C41.2252 64.0655 43.2418 65.7888 43.2618 65.8055L43.4402 65.9555V66.1888C43.4402 68.9455 44.7285 69.9821 44.7835 70.0221C46.0585 70.9788 47.3218 71.3555 48.5335 71.1521C50.5335 70.8188 51.7485 69.0055 51.7602 68.9855L52.1235 68.4421L52.5535 68.9421C54.8768 71.5988 57.1452 69.7405 57.2402 69.6605L57.5368 69.4105L57.8552 69.6338C58.5568 70.1338 59.2202 70.3238 59.8268 70.1938C60.7935 69.9855 61.3585 69.0271 61.3635 69.0271L61.5535 68.6938L61.9185 68.7821C63.0202 69.0588 63.6368 67.5588 63.6418 67.5421L63.7685 67.2288H64.1018C66.3185 67.2288 66.6718 65.0621 66.6852 64.9621L66.7418 64.5855L67.1218 64.5388C68.9552 64.3221 70.2002 63.6805 70.8252 62.6271C71.8252 60.9355 70.9585 58.7005 70.9485 58.6788L70.8035 58.3171L71.1185 58.0888C74.9685 55.2888 73.6985 51.8938 73.6418 51.7555L73.5235 51.4505L73.7535 51.2171C74.5552 50.4155 74.9452 49.6271 74.9102 48.8738C74.8656 48.2871 74.602 47.7386 74.1718 47.3371L73.8385 47.0621L74.0602 46.6955C75.0185 45.0988 74.1252 43.8405 74.0868 43.7871L73.8518 43.4371L74.1535 43.1321C75.8952 41.3905 76.6768 39.7988 76.4735 38.3821C76.2368 36.7271 74.6685 35.8538 74.6535 35.8438L74.2968 35.6505L74.4118 35.2605C74.7368 34.1805 74.6935 33.3171 74.2835 32.6988C73.7052 31.8221 72.5385 31.6705 72.5268 31.6688L72.0818 31.6188V31.1721C72.0818 29.7238 71.7002 28.7071 70.9452 28.1488C69.6802 27.2155 67.7468 27.7955 67.7268 27.8021L67.1802 27.9688L67.0868 27.4055C66.9852 26.7971 66.7535 26.3655 66.4085 26.1205C66.1129 25.9276 65.7592 25.8439 65.4085 25.8838C64.8435 26.1388 64.5102 26.4738 64.3868 26.9055C64.1252 27.8355 64.8985 28.9471 64.9068 28.9588L65.0252 29.1255L64.9918 29.3305C64.6768 31.2205 65.8252 31.8555 65.8818 31.8821L66.2568 32.0805L66.1285 32.4838C65.1485 35.4221 68.0002 36.4288 68.1285 36.4705L68.5435 36.6121L68.4602 37.0421C68.1485 38.6021 69.7502 39.5838 69.7668 39.5938L70.2152 39.8638L69.9252 40.3005C68.6035 42.2821 69.8868 43.9271 69.8985 43.9438L70.3685 44.5305L69.6468 44.7371C68.3135 45.1188 67.4352 45.7871 67.0552 46.7205C66.3018 48.5671 67.6202 50.9105 67.6335 50.9355L67.8968 51.3938L67.4235 51.6305C66.4602 52.1121 66.7402 54.2121 66.9235 54.9105L67.0318 55.3421L66.6135 55.4988C63.9102 56.5138 63.8602 59.1538 63.8602 59.2655V59.7655H63.3602C60.0502 59.7655 60.0118 63.3471 60.0118 63.4988V64.1088L59.4135 63.9888C57.9135 63.6888 57.3068 65.1555 57.2818 65.2238L57.0002 65.9271L56.4652 65.3921C55.5102 64.4371 53.8535 64.7555 53.8368 64.7588L53.3618 64.8538L53.2518 64.3805C52.8202 62.5055 51.7618 61.3538 50.1102 60.9538C49.317 60.7721 48.4948 60.7562 47.6952 60.9071L46.6102 61.1571L47.1435 60.1805C47.7885 58.9971 47.9368 58.0255 47.5868 57.2905C47.0702 56.2105 45.5868 55.9121 45.5685 55.9088L44.8818 55.7855L45.2152 55.1755C45.7385 54.2321 45.8668 53.4505 45.5968 52.8421C45.1985 51.9538 44.0168 51.6755 44.0052 51.6655L43.2752 51.4988L43.7035 50.8855C44.5185 49.7188 44.8035 48.7388 44.5518 47.9638C44.2435 47.0171 43.1935 46.6471 43.1835 46.6438L42.5935 46.4405L42.9268 45.9088C43.7318 44.5988 43.9835 43.3205 43.6735 42.1055C43.0835 39.8788 40.8018 38.5455 40.7785 38.5321L40.0368 38.1088L40.7702 37.6705C42.4368 36.6705 42.4502 33.8938 42.4502 33.8655V33.4421L42.8685 33.3721C44.6752 33.0721 44.3935 30.9488 44.3802 30.8571L44.3102 30.3738L44.7935 30.2938C45.5585 30.1655 46.0268 29.7938 46.2252 29.1488C46.3183 28.8333 46.3455 28.502 46.3052 28.1755L46.1602 27.2988L46.9852 27.6321C48.3602 28.1821 48.9285 26.9971 49.0302 26.7538L49.1568 26.4455H49.4902C50.2418 26.4455 50.8068 26.2371 51.1718 25.8271C51.8168 25.1021 51.6885 23.9388 51.6868 23.9271L51.5885 23.0938L52.3685 23.4038C53.9685 24.0438 55.6618 22.3771 55.6785 22.3605L55.8968 22.1421L56.1902 22.2405C57.3735 22.6338 58.3402 22.5921 59.0602 22.1138C60.3652 21.2471 60.5335 19.2321 60.5352 19.2121L60.5835 18.6021L61.1718 18.7688C61.6718 18.9105 62.3485 19.0138 62.7718 18.6988C63.1952 18.3838 63.2285 17.7121 63.2285 17.7071L63.2385 16.9788L63.9052 17.2455C65.2868 17.7988 65.8335 16.7605 65.9302 16.5471L66.0402 16.3021L66.3052 16.2538C67.4818 16.0588 67.4235 15.6255 67.3752 15.2788C67.367 15.176 67.3387 15.0757 67.2918 14.9838C67.0239 14.8763 66.7242 14.8793 66.4585 14.9921C66.3062 15.0796 66.1885 15.2167 66.1252 15.3805L65.9302 16.0155L65.3752 15.6538C64.4318 15.0388 63.3535 16.0938 63.3068 16.1388L63.0368 16.4071L62.7035 16.2188C62.0018 15.8188 61.4085 15.7188 60.9418 15.9021C60.2402 16.1871 59.9718 17.0688 59.9685 17.0688L59.8152 17.6055L59.2985 17.3938C58.4168 17.0321 57.7168 16.9838 57.2202 17.2488C56.8705 17.4555 56.617 17.7923 56.5152 18.1855L56.4002 18.7488L55.8585 18.5571C54.0252 17.9105 52.5918 17.9388 51.5968 18.6421C50.0018 19.7705 49.9835 22.2938 49.9835 22.3188V22.8955L49.4118 22.8138C47.2835 22.5105 46.9268 23.8138 46.8935 23.9621L46.7868 24.4388L46.3068 24.3488C45.8885 24.2655 45.5702 24.3088 45.3602 24.4788C45.0552 24.7271 44.9818 25.2288 44.9802 25.4005L44.9718 26.0855L44.3218 25.8721C44.0951 25.7922 43.8572 25.7484 43.6168 25.7421Z" fill="#171718"/>
</svg>
